<svg xmlns="http://www.w3.org/2000/svg" width="21" height="28" viewBox="0 0 21 28" fill="none">
    <path d="M2.79133 16.4759C2.4797 16.1517 1.87988 16.3608 1.87988 16.8106V24.8908C1.87988 25.7159 2.20963 26.5072 2.79658 27.0907C3.38353 27.6741 4.17961 28.0019 5.00969 28.0019H15.964C16.7941 28.0019 17.5901 27.6741 18.1771 27.0907C18.3173 26.9513 18.4429 26.8 18.5528 26.6392C18.6919 26.4357 18.6073 26.1653 18.3933 26.0428L18.0172 25.8273C15.7934 24.5535 12.6853 22.7681 10.0012 21.208C7.38512 19.6875 5.01027 18.2891 4.38691 17.8484C3.81212 17.442 3.27779 16.9821 2.79133 16.4759Z" fill="#00A0D0"/>
    <path d="M6.57341 8.57637L6.57337 8.55417C6.57337 7.52278 6.98555 6.53362 7.71924 5.80431C8.45293 5.075 9.44803 4.66528 10.4856 4.66528C11.5232 4.66528 12.5183 5.075 13.252 5.80431C13.927 6.47526 14.3298 7.36613 14.39 8.30749C14.3995 8.45625 14.4886 8.59047 14.627 8.64582L18.5031 10.1959C18.6872 10.2695 18.8989 10.1829 18.9539 9.99246C19.0926 9.51315 19.0926 9.05711 19.0926 8.55417C19.0926 6.28509 18.1858 4.10896 16.5717 2.50448C14.9941 0.936346 12.8672 0.0398087 10.6406 0C5.78774 0.0844915 1.87988 4.02126 1.87988 8.86528C1.87988 11.8491 3.36262 14.4887 5.63565 16.0957C6.64679 16.8106 14.1647 21.1399 18.6736 23.724C18.8602 23.831 19.0926 23.6964 19.0926 23.4813V21.776C19.0926 19.6293 17.9815 17.9742 16.1506 16.8371C14.3196 15.7 9.23737 12.5421 9.23737 12.5421L9.22744 12.5364C7.61323 11.5326 6.61837 10.5347 6.57486 8.68208C6.57404 8.64715 6.57356 8.61191 6.57341 8.57637Z" fill="#7400B7"/>
</svg>