<svg width="145" height="100" viewBox="0 0 145 100" fill="none" xmlns="http://www.w3.org/2000/svg">
    <g clip-path="url(#clip0_1_248)">
        <path d="M112.887 56.7327L123.077 48.1162C131.98 40.5922 136.431 36.8301 135.455 32.8186C134.482 28.8084 128.802 27.5039 117.439 24.898L104.434 21.914C95.2658 19.8109 90.6804 18.7614 88.4646 19.9647C87.4286 20.5269 86.5598 21.3533 85.9465 22.3599C85.3332 23.3664 84.9971 24.5174 84.9725 25.6959C84.9178 28.2188 87.9542 31.8106 94.0256 38.9962C94.7785 39.8867 95.981 40.3085 97.1144 40.0405L115.651 35.6318C115.904 35.5594 116.168 35.5389 116.429 35.5716C116.689 35.6044 116.941 35.6896 117.167 35.8223C117.394 35.9549 117.591 36.1321 117.748 36.3433C117.904 36.5544 118.016 36.795 118.076 37.0506C118.137 37.3061 118.145 37.5713 118.1 37.8301C118.055 38.0889 117.958 38.336 117.815 38.5562C117.672 38.7765 117.486 38.9655 117.268 39.1118C117.05 39.258 116.804 39.3585 116.546 39.4071L98.3122 43.7441C97.6968 43.9007 97.1368 44.2248 96.6944 44.6805C96.2521 45.1362 95.9448 45.7056 95.8067 46.3254C93.7035 55.4938 92.6528 60.0813 93.8548 62.2992C94.4176 63.3352 95.2444 64.204 96.2512 64.8176C97.2581 65.4311 98.4093 65.7674 99.5881 65.7925C102.11 65.8439 105.7 62.8062 112.887 56.7327Z" fill="#00A0D0"/>
    </g>
    <path d="M79.3166 40.3011C79.9824 40.3899 80.5856 40.7396 80.9936 41.2732C81.1956 41.5374 81.3436 41.8389 81.4291 42.1603C81.5147 42.4817 81.5361 42.8169 81.4921 43.1466C81.4482 43.4763 81.3397 43.7941 81.1729 44.0819C81.0062 44.3697 80.7844 44.6218 80.5202 44.8239C79.9867 45.232 79.3129 45.4113 78.6472 45.3225C73.4327 44.6265 66.1421 45.7128 60.9182 47.9629C55.3899 50.3439 51.1626 54.1606 49.0157 58.7094C48.9621 58.8226 48.9099 58.9366 48.859 59.0513L48.9345 59.0286C57.9726 56.3048 64.6435 57.117 68.7716 61.448C69.982 62.775 70.8735 64.3607 71.3784 66.0845C71.8834 67.8082 71.9883 69.6245 71.6852 71.395C71.4292 73.36 70.7341 75.2421 69.6514 76.9018C68.5688 78.5614 67.1265 79.956 65.4315 80.982C59.2335 84.5448 50.4846 82.5114 45.9265 76.4485C43.8678 73.648 42.6649 70.3106 42.4636 66.8404C36.4712 69.4099 30.9626 72.9861 26.1765 77.4143C20.0033 83.2844 16.4923 90.0518 16.023 96.9843C16.0045 97.3191 15.9198 97.647 15.7737 97.9488C15.6276 98.2506 15.423 98.5205 15.1719 98.7426C14.9207 98.9648 14.628 99.1348 14.3106 99.243C13.9932 99.3511 13.6576 99.3951 13.323 99.3725C12.9885 99.3499 12.6618 99.261 12.3619 99.1112C12.062 98.9613 11.7948 98.7533 11.5758 98.4994C11.3569 98.2455 11.1905 97.9506 11.0863 97.6318C10.9822 97.313 10.9423 96.9768 10.9691 96.6425C11.5268 88.4207 15.5772 80.5027 22.6861 73.743C28.0559 68.6377 34.9639 64.345 42.8717 61.1734C43.2117 59.5766 43.7355 58.0245 44.4327 56.5483C47.1087 50.8817 52.2492 46.1814 58.9121 43.3115C60.1618 42.7775 61.4409 42.3151 62.7431 41.9263C68.1558 40.2943 74.3993 39.647 79.3166 40.3011ZM49.9762 73.4057C52.9971 77.4256 58.9188 78.8844 62.9063 76.5908C63.9322 75.9428 64.8018 75.0756 65.4528 74.0514C66.1037 73.0273 66.5197 71.8717 66.671 70.6676C66.8603 69.6568 66.8176 68.6161 66.5462 67.6242C66.2747 66.6323 65.7815 65.715 65.1038 64.9416C62.274 61.9723 57.002 61.7144 49.4233 64.1812C48.781 64.3905 48.1447 64.607 47.5144 64.8306C47.3319 67.8863 48.2006 70.9124 49.9762 73.4057Z" fill="#EDF9FC"/>
    <defs>
        <clipPath id="clip0_1_248">
            <rect width="59" height="59" fill="white" transform="translate(93.8125) rotate(31.3548)"/>
        </clipPath>
    </defs>
</svg>
