<svg width="410" height="248" viewBox="0 0 410 248" fill="none" xmlns="http://www.w3.org/2000/svg">
<g clip-path="url(#clip0_1_265)">
<rect x="-14" width="425" height="248" rx="16" fill="#EDF9FC"/>
<path d="M285.929 170.633C285.929 170.627 285.929 170.621 285.93 170.615C285.93 170.609 285.928 170.623 285.929 170.633Z" fill="#FFBEB6"/>
<path d="M283.677 169.789L283.677 169.796C283.683 169.808 283.676 169.786 283.677 169.789Z" fill="#240038"/>
<path d="M177.467 112.291L137.948 114.157L105.204 128.463L84.2027 248.831H247.359L177.467 112.291Z" fill="#7400B7"/>
<path d="M259.004 89.4935C259.004 89.4935 260.279 86.9003 262.102 87.8669C263.977 88.8612 263.017 91.0995 263.017 91.0995C263.017 91.0995 264.141 88.1255 266.115 88.9601C267.947 89.736 267.186 92.516 267.186 92.516C267.949 90.9256 269.242 89.8498 270.7 90.7917C272.115 91.7059 271.481 93.78 271.481 93.78C272.675 91.8831 275.032 92.0757 275.334 94.7782C275.637 97.4807 268.025 112.074 266.153 114.433C263.653 117.585 256.127 120.477 251.348 121.896C250.609 122.116 249.959 122.564 249.492 123.178C249.025 123.791 248.764 124.537 248.749 125.308L248.653 130.073C248.653 130.073 227.754 127.88 227.908 127.739C228.061 127.597 229.367 114.222 231.775 111.047C234.182 107.873 237.778 105.573 238.83 104.653C239.575 104.003 244.402 96.5846 245.342 95.2857C246.479 93.7147 249.785 92.944 249.379 96.2329C248.974 99.5218 244.519 105.311 245.701 106.324C250.174 110.16 259.004 89.4935 259.004 89.4935Z" fill="#FFBEB6"/>
<path d="M256.17 104.401C256.063 104.401 255.959 104.373 255.867 104.319C255.775 104.265 255.7 104.188 255.648 104.095C255.595 104.002 255.569 103.897 255.571 103.791C255.573 103.685 255.603 103.581 255.658 103.49C258.641 98.5881 262.447 90.9158 262.484 90.8389C262.518 90.7661 262.565 90.7008 262.625 90.6468C262.684 90.5928 262.753 90.5512 262.829 90.5245C262.904 90.4978 262.984 90.4865 263.064 90.4913C263.144 90.4961 263.223 90.5168 263.294 90.5524C263.366 90.5879 263.43 90.6375 263.483 90.6982C263.535 90.7588 263.574 90.8294 263.599 90.9057C263.624 90.9819 263.633 91.0623 263.626 91.1421C263.619 91.2219 263.596 91.2995 263.558 91.3703C263.52 91.4479 259.693 99.1661 256.682 104.113C256.629 104.201 256.553 104.274 256.464 104.324C256.374 104.375 256.273 104.401 256.17 104.401Z" fill="#F57677"/>
<path d="M260.34 105.807C260.233 105.807 260.129 105.779 260.037 105.725C259.945 105.671 259.869 105.594 259.817 105.501C259.765 105.409 259.739 105.304 259.741 105.198C259.743 105.091 259.773 104.987 259.828 104.896C262.811 99.9945 266.617 92.3222 266.654 92.2453C266.689 92.1747 266.738 92.1117 266.797 92.0599C266.856 92.0081 266.925 91.9685 267 91.9433C267.074 91.9181 267.153 91.9079 267.232 91.9131C267.31 91.9184 267.387 91.9391 267.457 91.974C267.528 92.009 267.591 92.0575 267.643 92.1168C267.695 92.176 267.734 92.2449 267.759 92.3195C267.785 92.3941 267.795 92.473 267.79 92.5515C267.784 92.6301 267.764 92.7068 267.729 92.7774C267.69 92.8543 263.862 100.573 260.852 105.52C260.799 105.608 260.723 105.68 260.634 105.731C260.544 105.781 260.442 105.808 260.34 105.807Z" fill="#F57677"/>
<path d="M264.633 107.071C264.527 107.07 264.422 107.042 264.331 106.988C264.239 106.934 264.163 106.857 264.111 106.765C264.059 106.672 264.033 106.567 264.035 106.461C264.036 106.355 264.066 106.251 264.121 106.16C267.105 101.258 270.91 93.585 270.947 93.508C271.018 93.3655 271.142 93.2569 271.293 93.206C271.444 93.1552 271.608 93.1662 271.751 93.2368C271.893 93.3074 272.002 93.4316 272.053 93.5823C272.104 93.7329 272.093 93.8976 272.022 94.0401C271.983 94.117 268.156 101.836 265.146 106.782C265.092 106.871 265.017 106.943 264.927 106.994C264.837 107.044 264.736 107.071 264.633 107.071Z" fill="#F57677"/>
<path d="M104.037 37.8232C103.458 38.7717 102.577 39.5556 101.544 39.9656C69.4881 52.6944 93.4154 89.4165 87.4989 115.66C87.0263 117.757 88.0268 119.92 90.1665 120.118C107.033 121.679 158.677 110.427 182.52 91.8647C183.634 90.9977 184.136 89.5959 183.851 88.2137C181.739 77.9939 171.38 35.7028 143.14 27.3862C117.528 19.8439 106.879 33.1636 104.037 37.8232Z" fill="#061322"/>
<path d="M113.577 89.6998L125.473 121.025C130.008 127.021 156.996 120.508 156.136 113.648L146.955 88.9505L113.577 89.6998Z" fill="#FFBEB6"/>
<path d="M141.172 95.3977C139.488 96.3502 140.003 98.9 141.924 99.1248L151.146 100.204L147.937 91.5696L141.172 95.3977Z" fill="#061322"/>
<path d="M102.487 75.3071C101.052 75.0211 99.5658 75.1427 98.1964 75.6583C96.8269 76.1738 95.6293 77.0627 94.7391 78.224C93.849 79.3854 93.3019 80.7729 93.1599 82.2293C93.018 83.6857 93.2868 85.1527 93.9359 86.4641C94.585 87.7756 95.5885 88.879 96.8326 89.6493C98.0767 90.4196 99.5117 90.826 100.975 90.8225C102.438 90.819 103.871 90.4057 105.112 89.6295C106.352 88.8532 107.35 87.745 107.993 86.4305C112.847 92.8392 120.015 97.0943 127.965 98.2857C135.916 99.4772 144.016 97.5104 150.535 92.8061C157.054 88.1018 161.473 81.0333 162.848 73.1127C164.222 65.192 162.443 57.0479 157.89 50.4224C155.117 46.3506 151.413 42.9982 147.086 40.6427C142.759 38.2873 137.933 36.9966 133.008 36.8775C128.083 36.7584 123.201 37.8145 118.765 39.9581C114.329 42.1017 110.468 45.2713 107.501 49.2043C102.054 56.4208 100.446 66.4982 102.487 75.3071Z" fill="#FFBEB6"/>
<path d="M160.042 51.8885C147.612 53.0664 134.299 50.1532 119.369 46.4072C118.2 57.0607 112.057 70.1049 102.483 75.2991L95.1086 61.6523L113.579 36.8626L142.421 35.6749L157.598 47.7178L160.042 51.8885Z" fill="#061322"/>
<path d="M193.452 119.684L209.688 137.585L208.787 125.664C208.693 124.429 209.734 123.407 210.967 123.522L264.715 128.548C265.871 128.656 266.696 129.684 266.491 130.827C264.52 141.835 254.683 193.118 241.153 201.004C223.788 211.126 218.441 199.297 182.561 168.238L177.475 112.291C180.497 112.389 183.469 113.095 186.214 114.365C188.959 115.635 191.42 117.444 193.452 119.684Z" fill="#7400B7"/>
<path d="M180.723 233.068C180.723 233.068 183.467 233.973 182.762 235.912C182.036 237.908 179.685 237.266 179.685 237.266C179.685 237.266 182.789 237.968 182.233 240.038C181.716 241.96 178.862 241.59 178.862 241.59C180.543 242.126 181.787 243.257 181.056 244.832C180.345 246.36 178.204 246.019 178.204 246.019C180.249 246.938 180.384 249.299 177.752 249.972C175.12 250.646 134.219 240.465 134.219 240.465C134.219 240.465 139.635 215.039 139.816 215.144C139.996 215.248 168.855 221.464 170.441 221.693C173.298 222.107 173.997 225.24 170.736 225.831C167.476 226.423 160.608 224.031 159.24 224.773C153.569 227.846 180.723 233.068 180.723 233.068Z" fill="#FFBEB6"/>
<path d="M103.422 204.542L109.248 173.794L105.204 128.466C92.0657 134.785 41.5799 214.988 70.7039 234.629C90.675 248.097 134.345 262.799 134.345 262.799L146.299 213.732L103.422 204.542Z" fill="#7400B7"/>
<path d="M264.831 107.974C248.371 107.974 235.027 94.631 235.027 78.171C235.027 61.711 248.371 48.3676 264.831 48.3676C281.291 48.3676 294.634 61.711 294.634 78.171C294.634 94.631 281.291 107.974 264.831 107.974Z" fill="#00A0D0"/>
<path d="M263.033 91.0564L263.018 91.0962C263.018 91.0962 263.024 91.0833 263.033 91.0564Z" fill="#FFBEB6"/>
<path d="M246.589 102.846C247.655 100.712 249.159 98.0765 249.386 96.2301C249.791 92.9412 246.485 93.7086 245.348 95.2829C244.94 95.8467 243.8 97.5638 242.579 99.3799C243.81 100.651 245.152 101.811 246.589 102.846Z" fill="#FFBEB6"/>
<path d="M354.66 184.171C354.661 184.171 354.661 184.172 354.66 184.172C352.561 184.567 350.545 185.302 348.692 186.345C347.945 186.765 348.133 187.905 348.866 188.348C349.059 188.464 349.246 188.59 349.427 188.725C350.197 189.296 350.841 190.02 351.321 190.849C351.658 191.552 351.848 192.317 351.878 193.096C351.909 193.875 351.78 194.653 351.5 195.38C351.219 196.108 350.793 196.77 350.247 197.327C349.702 197.884 349.048 198.323 348.326 198.618C347.771 198.819 347.185 198.921 346.595 198.919C345.621 198.912 344.665 198.659 343.815 198.183C343.123 197.819 342.517 197.311 342.037 196.694C341.558 196.076 341.216 195.363 341.035 194.603C340.86 193.574 340.918 192.519 341.203 191.515C341.301 191.17 341.426 190.835 341.574 190.51C341.922 189.754 341.473 188.74 340.641 188.745C339.685 188.75 338.729 188.801 337.778 188.896C337.196 188.954 336.808 189.512 336.917 190.086C337.407 192.68 337.61 195.32 337.521 197.96C336.733 223.472 322.998 223.326 318.174 249.229C318.085 249.707 317.667 250.072 317.182 250.072H303.908C303.384 250.072 302.941 249.668 302.838 249.155C302.21 246.015 298.897 235.891 282.302 235.891C265.612 235.891 261.801 246.047 261.033 249.098C260.91 249.586 260.48 249.954 259.977 249.954H246.459C246.007 249.954 245.612 249.658 245.478 249.226C244.525 246.164 240.358 234.206 231.666 228.04C231.469 227.901 231.22 227.842 230.98 227.87C219.587 229.202 216.364 229.313 210.094 216.166C210.088 216.153 210.086 216.149 210.08 216.136C209.902 215.712 204.35 202.434 208.6 200.491C212.918 198.516 222.528 198.312 228.823 184.2C230.791 179.956 233.545 176.124 236.938 172.907C237.196 172.663 237.312 172.301 237.234 171.954C235.153 162.672 232.106 154.949 232.616 152.982C233.138 150.969 250.023 151.535 258.645 159.644C258.919 159.901 259.308 159.998 259.666 159.886C267.094 157.571 274.813 156.318 282.593 156.163C306.615 155.516 329.855 166.638 335.979 186.302C336.128 186.78 336.597 187.088 337.094 187.031C339.309 186.777 341.545 186.752 343.766 186.955C343.822 186.96 343.877 186.965 343.932 186.971C344.217 186.999 344.502 186.911 344.723 186.729C344.769 186.691 344.813 186.654 344.857 186.62C347.603 184.42 350.848 182.93 354.306 182.279C354.554 182.238 354.809 182.295 355.015 182.44C355.221 182.584 355.363 182.804 355.409 183.051C355.455 183.299 355.402 183.555 355.262 183.764C355.122 183.973 354.906 184.118 354.66 184.17C354.66 184.17 354.66 184.171 354.66 184.171ZM345.023 189.064C345.023 189.063 345.022 189.063 345.021 189.064C343.881 190.225 342.47 192.141 342.917 194.193C343.04 194.679 343.264 195.133 343.574 195.527C343.884 195.921 344.273 196.245 344.716 196.479C345.159 196.713 345.646 196.852 346.146 196.886C346.646 196.921 347.148 196.85 347.619 196.678C348.089 196.507 348.519 196.238 348.88 195.89C349.241 195.543 349.524 195.123 349.713 194.659C349.901 194.194 349.991 193.696 349.974 193.195C349.958 192.694 349.837 192.202 349.62 191.751C348.902 190.39 347.359 189.49 345.024 189.064C345.024 189.064 345.023 189.064 345.023 189.064Z" fill="#00A0D0"/>
<path d="M270.254 174.125C268.356 174.429 266.528 173.204 266.166 171.316C265.808 169.447 267.025 167.632 268.904 167.327C279.444 165.613 290.192 165.613 300.733 167.327C302.627 167.635 303.846 169.476 303.463 171.357C303.082 173.224 301.265 174.427 299.383 174.126C289.734 172.584 279.902 172.584 270.254 174.125Z" fill="white"/>
<path d="M239.979 44.7229C240.592 44.4454 241.069 43.936 241.306 43.3066C241.423 42.9949 241.478 42.6632 241.467 42.3304C241.457 41.9976 241.38 41.6701 241.243 41.3667C241.106 41.0634 240.91 40.7901 240.667 40.5624C240.424 40.3347 240.138 40.1571 239.827 40.0397C239.197 39.8027 238.499 39.8254 237.887 40.1028C233.088 42.2764 225.785 43.3412 220.126 42.6934C214.138 42.0081 208.983 39.5707 205.61 35.8306C205.526 35.7375 205.443 35.6433 205.361 35.548H205.44C214.893 35.548 221.054 32.8423 223.761 27.4982C224.538 25.8765 224.935 24.0988 224.921 22.3006C224.907 20.5024 224.483 18.731 223.681 17.1214C222.868 15.3118 221.658 13.7084 220.141 12.4302C218.624 11.1521 216.838 10.232 214.916 9.73814C207.945 8.11343 200.144 12.59 197.525 19.7185C196.36 22.9978 196.171 26.5444 196.98 29.9291C190.492 29.1972 184.178 27.3604 178.31 24.4983C170.696 20.6547 165.375 15.1819 162.923 8.67202C162.809 8.35639 162.633 8.06661 162.405 7.81949C162.178 7.57236 161.904 7.37282 161.599 7.23242C161.294 7.09203 160.964 7.01357 160.629 7.00161C160.293 6.98965 159.959 7.04442 159.645 7.16274C159.33 7.28106 159.043 7.46059 158.799 7.6909C158.554 7.92121 158.358 8.19773 158.222 8.50441C158.085 8.8111 158.011 9.14185 158.003 9.47749C157.995 9.81313 158.054 10.147 158.176 10.4597C161.086 18.1798 167.256 24.5998 176.024 29.0259C182.647 32.3684 190.51 34.4877 199.008 35.2435C199.795 36.676 200.746 38.0124 201.841 39.2261C206.043 43.885 212.329 46.9055 219.546 47.7318C220.899 47.8826 222.259 47.9564 223.619 47.9529C229.28 47.9535 235.453 46.7704 239.979 44.7229ZM202.287 21.4654C204.022 16.7394 209.278 13.6302 213.764 14.6769C214.934 15.0017 216.019 15.5818 216.939 16.3755C217.859 17.1691 218.591 18.1567 219.084 19.2673C219.557 20.1815 219.817 21.1914 219.843 22.2206C219.87 23.2499 219.662 24.2716 219.235 25.2088C217.38 28.8727 212.4 30.6429 204.421 30.4676C203.745 30.4526 203.072 30.4289 202.403 30.3965C201.345 27.5201 201.304 24.3684 202.287 21.4654Z" fill="white"/>
<path d="M268.673 90.2647C268.205 90.3818 267.858 90.7913 267.858 91.2743V92C267.858 92.5523 267.41 93 266.858 93H263.317C262.765 93 262.317 92.5523 262.317 92V91.292C262.317 90.8079 261.969 90.3979 261.499 90.281C257.796 89.3591 255.416 86.8974 255.05 83.2857C254.994 82.7362 255.448 82.2863 256 82.2863H261.091C261.643 82.2863 262.063 82.7536 262.279 83.2617C262.706 84.264 263.802 84.7647 264.998 84.7647C266.437 84.7647 267.809 84.0431 267.809 82.7834C267.809 81.2527 265.884 80.8095 263.524 80.2351C259.921 79.3533 255.334 78.2578 255.334 72.689C255.334 68.987 257.509 66.499 261.246 65.5775C261.717 65.4613 262.068 65.0508 262.068 64.5654V64C262.068 63.4477 262.515 63 263.068 63H266.609C267.161 63 267.609 63.4477 267.609 64V64.6037C267.609 65.0833 267.951 65.4903 268.414 65.614C271.789 66.5147 273.809 68.7788 274.145 72.0442C274.202 72.5927 273.749 73.042 273.197 73.0433L268.312 73.0541C267.759 73.0553 267.344 72.5797 267.091 72.0879C266.688 71.3061 265.776 70.9222 264.722 70.9222C263.485 70.9222 262.304 71.4232 262.304 72.48C262.304 73.8795 264.17 74.3384 266.534 74.9286C270.206 75.862 275 77.0459 275 82.6482C275 86.7376 272.493 89.3099 268.673 90.2647Z" fill="white"/>
<path d="M35.7135 174.018C35.3211 174.018 34.9345 173.923 34.587 173.741C31.4474 172.095 28.6877 169.81 26.486 167.032C24.2843 164.255 22.6895 161.046 21.8045 157.614C20.9196 154.182 20.7642 150.602 21.3483 147.106C21.9325 143.61 23.2432 140.275 25.1959 137.317C27.9418 133.158 31.7455 130.034 35.4259 127.012L35.5356 126.922C38.7596 124.273 42.4176 121.271 44.755 117.548C47.1178 113.788 47.7564 109.625 46.4631 106.411C45.2653 103.435 41.4473 100.935 38.32 102.173C38.0231 102.291 37.706 102.349 37.3867 102.344C37.0674 102.339 36.7522 102.271 36.4592 102.144C36.1661 102.017 35.9009 101.834 35.6786 101.605C35.4564 101.375 35.2815 101.105 35.1639 100.808C35.0464 100.511 34.9884 100.194 34.9934 99.8744C34.9984 99.5551 35.0662 99.2399 35.193 98.9469C35.3198 98.6538 35.5031 98.3886 35.7324 98.1663C35.9617 97.9441 36.2326 97.7692 36.5295 97.6516C41.8838 95.5318 48.6337 98.7763 50.9755 104.596C52.8485 109.251 52.0629 115.061 48.873 120.136C46.1128 124.528 42.1336 127.797 38.6226 130.681L38.5128 130.771C35.1134 133.561 31.598 136.451 29.2569 139.997C27.6787 142.388 26.6194 145.082 26.1473 147.908C25.6752 150.733 25.8008 153.626 26.516 156.4C27.2311 159.173 28.52 161.766 30.2994 164.011C32.0787 166.256 34.309 168.103 36.8463 169.432C37.329 169.684 37.713 170.091 37.937 170.588C38.161 171.084 38.2119 171.641 38.0815 172.17C37.9512 172.699 37.6472 173.168 37.2182 173.504C36.7892 173.839 36.26 174.021 35.7154 174.02L35.7135 174.018Z" fill="white"/>
<path d="M355.608 145.63C364.846 141.306 371.16 131.742 371.313 121.829C371.318 121.45 371.313 121.068 371.302 120.688C373.189 119.808 374.915 118.618 376.409 117.169C380.136 113.535 382.386 108.542 382.916 102.731C383.361 97.3486 382.419 91.9418 380.181 87.0265C375.508 76.7618 368.234 69.4185 358.562 65.2025C357.971 64.9448 357.302 64.9326 356.702 65.1684C356.101 65.4043 355.619 65.869 355.362 66.4602C355.104 67.0514 355.092 67.7208 355.328 68.321C355.563 68.9213 356.028 69.4033 356.619 69.6609C365.156 73.3809 371.594 79.9021 375.755 89.0403C377.646 93.1857 378.444 97.7465 378.073 102.288C377.649 106.93 375.903 110.871 373.013 113.685C372.274 114.405 371.454 115.037 370.57 115.57C369.848 112.72 368.647 110.014 367.018 107.566C364.231 103.312 360.174 100.045 355.424 98.2287C352.804 97.2646 350.571 97.078 348.595 97.6577C345.208 98.6497 342.696 102.047 342.487 105.916C342.285 109.658 344.063 112.846 345.587 114.861C348.965 119.319 354.402 122.138 360.503 122.595C362.485 122.747 364.478 122.635 366.431 122.262C366.232 126.187 364.956 129.981 362.744 133.228C360.465 136.685 357.282 139.451 353.542 141.226C346.203 144.661 336.857 143.969 329.734 139.464C329.464 139.293 329.163 139.177 328.849 139.123C328.534 139.068 328.212 139.077 327.9 139.147C327.589 139.217 327.294 139.348 327.033 139.532C326.772 139.716 326.55 139.95 326.379 140.219C326.209 140.489 326.093 140.79 326.039 141.105C325.984 141.42 325.992 141.742 326.062 142.053C326.133 142.365 326.264 142.66 326.448 142.92C326.632 143.181 326.865 143.404 327.135 143.574C331.353 146.22 336.151 147.798 341.115 148.172C341.907 148.233 342.697 148.263 343.483 148.264C347.668 148.283 351.807 147.384 355.608 145.63ZM353.748 102.793C359.895 105.054 364.598 110.833 366.012 117.384C364.326 117.757 362.594 117.879 360.872 117.744C356.16 117.392 352.006 115.27 349.469 111.923C348.433 110.559 347.224 108.451 347.347 106.178C347.443 104.391 348.57 102.735 349.967 102.324C350.291 102.233 350.627 102.189 350.964 102.192C351.919 102.23 352.861 102.433 353.747 102.792L353.748 102.793Z" fill="white"/>
</g>
<defs>
<clipPath id="clip0_1_265">
<rect x="-14" width="425" height="248" rx="16" fill="white"/>
</clipPath>
</defs>
</svg>
