<svg width="410" height="248" viewBox="0 0 410 248" fill="none" xmlns="http://www.w3.org/2000/svg">
<g clip-path="url(#clip0_1_111)">
<rect x="-14" width="425" height="248" rx="16" fill="#EDF9FC"/>
<path d="M285.929 170.633C285.929 170.627 285.929 170.621 285.93 170.615C285.93 170.609 285.928 170.623 285.929 170.633Z" fill="#FFBEB6"/>
<path d="M283.677 169.789L283.677 169.796C283.683 169.808 283.676 169.786 283.677 169.789Z" fill="#240038"/>
<g clip-path="url(#clip1_1_111)">
<path fill-rule="evenodd" clip-rule="evenodd" d="M250.819 82.5412C250.819 81.2235 251.327 79.9776 252.255 79.0431C253.184 78.1206 254.442 77.6054 255.752 77.6054C272.229 77.6054 325.259 77.6054 341.737 77.6054C343.046 77.6054 344.305 78.1206 345.233 79.0431C346.161 79.9776 346.682 81.2235 346.682 82.5412C346.682 94.4857 346.682 124.892 346.682 136.837C346.682 138.141 346.161 139.399 345.233 140.324C344.305 141.257 343.046 141.771 341.737 141.771C325.259 141.771 272.229 141.771 255.752 141.771C254.442 141.771 253.184 141.257 252.255 140.324C251.327 139.399 250.819 138.141 250.819 136.837C250.819 124.892 250.819 94.4857 250.819 82.5412Z" fill="#00A0D0"/>
<path fill-rule="evenodd" clip-rule="evenodd" d="M261.868 44.1012C261.868 41.8363 263.701 40 265.97 40H330.888C333.157 40 335 41.8363 335 44.1012C335 55.6313 335 81 335 81C335 81 312.294 104.542 302.663 111.806C300.16 113.698 296.708 113.698 294.205 111.806C284.574 104.542 261.868 81 261.868 81C261.868 81 261.868 55.6313 261.868 44.1012Z" fill="white"/>
<path d="M268.417 53.3308H294.341C294.948 53.3308 295.438 52.8396 295.438 52.2332C295.438 51.6322 294.941 51.1484 294.341 51.1484H268.417C267.823 51.1484 267.332 51.6391 267.332 52.2332C267.332 52.8326 267.815 53.3308 268.417 53.3308Z" fill="#00A0D0" stroke="#00A0D0"/>
<path d="M268.2 63.7571H302.444C302.769 63.7571 303.013 63.5689 303.154 63.3629C303.296 63.1572 303.364 62.9019 303.364 62.6456C303.364 62.3947 303.292 62.1446 303.151 61.9444C303.01 61.745 302.768 61.5586 302.444 61.5586H268.2C267.872 61.5586 267.636 61.7583 267.504 61.9501C267.369 62.1476 267.297 62.3948 267.297 62.6456C267.297 62.9019 267.365 63.1543 267.5 63.3573C267.633 63.5554 267.87 63.7571 268.2 63.7571Z" fill="#00A0D0" stroke="#00A0D0"/>
<path d="M353.509 17.9429L353.509 17.9429C354.131 17.3211 355.139 17.3211 355.761 17.9429C356.382 18.5646 356.382 19.5728 355.76 20.1942C355.76 20.1942 355.76 20.1942 355.76 20.1942L339.553 36.4019L339.552 36.4024C338.931 37.0229 337.923 37.0243 337.301 36.4019C336.679 35.7802 336.68 34.7719 337.301 34.1505C337.302 34.1504 337.302 34.1502 337.302 34.1501L353.509 17.9429Z" fill="white" stroke="white" stroke-width="2"/>
<path d="M333.247 15.4683L333.247 15.4684L330.042 27.4314C329.814 28.2822 330.32 29.1534 331.167 29.3805L333.247 15.4683ZM333.247 15.4683C333.475 14.6185 334.349 14.1166 335.196 14.3433C336.045 14.5704 336.55 15.4433 336.323 16.2924C336.323 16.2925 336.323 16.2925 336.323 16.2925L333.117 28.2556L333.117 28.2559M333.247 15.4683L333.117 28.2559M333.117 28.2559C332.889 29.1061 332.016 29.6078 331.168 29.3807L333.117 28.2559Z" fill="white" stroke="white" stroke-width="2"/>
<path d="M345.446 40.5807L345.446 40.5807C344.6 40.8075 344.092 41.6791 344.32 42.5302L345.446 40.5807ZM345.446 40.5807L358.373 37.1169M345.446 40.5807L358.373 37.1169M359.198 40.1923L359.198 40.1922C360.047 39.9646 360.55 39.0913 360.323 38.243L359.198 40.1923ZM359.198 40.1923L346.27 43.6565L346.269 43.6567M359.198 40.1923L346.269 43.6567M346.269 43.6567C345.423 43.8826 344.548 43.382 344.32 42.531L346.269 43.6567ZM358.373 37.1169C358.374 37.1169 358.374 37.1168 358.374 37.1168M358.373 37.1169L358.374 37.1168M358.374 37.1168C359.223 36.8892 360.095 37.3942 360.322 38.2422L358.374 37.1168Z" fill="white" stroke="white" stroke-width="2"/>
<path fill-rule="evenodd" clip-rule="evenodd" d="M196.435 81.9504C196.435 81.9504 194.211 94.7453 191.693 100.428C191.693 100.428 195.802 113.005 187.135 110.399C187.135 110.399 180.1 130.451 161.336 121.058L158.012 130.976L122.259 124.587L130.251 104.988L148.324 73.1556L196.435 81.9504Z" fill="#FFBEB6"/>
<path fill-rule="evenodd" clip-rule="evenodd" d="M161.767 84.0122C161.767 84.0122 160.99 87.5593 161.153 93.6941C161.153 93.8388 161.26 93.984 161.407 94.0563C161.55 94.1287 161.713 94.0923 161.84 93.9836C163.034 92.8434 165.732 90.0027 168.409 85.1707C168.409 85.1707 186.58 87.7764 196.208 82.8541L195.59 85.8943C195.59 85.8943 203.427 81.7863 201.618 72.3578L205.255 76.194C205.255 76.194 202.36 40.941 168.409 34.1002C141.118 28.6171 129.807 45.4112 129.807 45.4112C129.807 45.4112 108.435 55.7084 115.115 77.3525C120.834 95.902 123.528 98.7252 128.253 109.33L132.775 110.199L147.761 95.1241C147.761 95.1241 141.552 90.2557 146.151 82.8541C148.665 78.8185 156.268 77.1898 161.767 84.0122Z" fill="#061322"/>
<path fill-rule="evenodd" clip-rule="evenodd" d="M171.014 326.739L179.938 211.353V157.787L120.487 149.824L82.7017 165.805C75.8789 166.491 53.7631 252.253 46 326.739H171.014Z" fill="#6B00A8"/>
<path fill-rule="evenodd" clip-rule="evenodd" d="M175.741 144.264C175.741 144.264 176.371 135.505 168.882 130.402C161.372 125.316 115.096 112.232 94.174 120.123C86.3374 123.072 84.5673 130.655 81.6363 141.676C80.0951 147.485 81.0926 149.313 76.5672 157.584C72.0623 165.854 79.2448 173.131 88.6553 173.094C98.0658 173.037 122.262 171.663 146.206 162.649C170.149 153.621 175.267 158.036 180.606 160.785C180.606 160.785 184.498 149.277 175.741 144.264Z" fill="#00A0D0"/>
<path fill-rule="evenodd" clip-rule="evenodd" d="M248.675 160.616C248.675 160.616 251.84 153.794 252.503 149.701C253.166 145.589 255.725 141.097 257.619 139.202C259.439 137.383 262.471 139.202 262.471 139.202C262.471 139.202 271.7 126.695 275.566 121.446C276.494 120.196 278.275 119.93 279.526 120.84C280.814 121.787 281.156 123.569 280.341 124.933C277.29 130.031 270.43 141.42 270.43 141.42C270.43 141.42 274.485 142.841 275.698 146.29C275.698 146.29 279.81 148.45 280.019 152.316C280.019 152.316 282.748 154.988 281.8 159.119C280.852 163.249 275.698 166.793 272.799 168.518C269.899 170.264 267.171 173.653 267.171 173.653L258.321 170.999L248.675 160.616Z" fill="#FFBEB6"/>
<path fill-rule="evenodd" clip-rule="evenodd" d="M239.203 167.868C236.687 167.925 235.059 168.685 233.195 170.46C228.001 175.435 217.577 186.566 200.656 209.422C200.656 209.422 189.182 170.349 180.839 161.176C172.495 152.017 139.743 165.247 147.886 200.968C156.009 236.713 169.401 269.666 191.897 270.189C214.409 270.717 230.172 249.758 246.622 226.575C263.091 203.396 265.697 189.567 264.05 184.808C264.05 184.808 263.995 184.608 263.832 184.265C264.285 183.345 265.842 180.863 267.127 178.439C268.303 176.195 267.904 173.444 266.149 171.616C263.145 168.522 257.608 163.706 249.554 160.321C247.853 159.617 245.881 160.088 244.686 161.499C242.478 164.05 239.203 167.868 239.203 167.868Z" fill="#6B00A8"/>
<path d="M310.928 86.8262L298.413 99.3408L292.725 93.6523" stroke="#00A0D0" stroke-width="3.03385" stroke-linecap="round" stroke-linejoin="round"/>
<path d="M268.486 73.6562H285.701C286.303 73.6562 286.598 73.0868 286.598 72.6508C286.598 72.2177 286.297 71.6562 285.701 71.6562H268.486C268.193 71.6562 267.962 71.8128 267.819 71.9939C267.676 72.176 267.598 72.4095 267.598 72.6508C267.598 72.8933 267.674 73.1291 267.817 73.3142C267.96 73.4986 268.192 73.6562 268.486 73.6562Z" fill="#00A0D0" stroke="#00A0D0"/>
<path d="M277.025 225.723C276.412 225.445 275.935 224.936 275.698 224.307C275.581 223.995 275.526 223.663 275.536 223.33C275.547 222.998 275.624 222.67 275.761 222.367C275.898 222.063 276.094 221.79 276.337 221.562C276.58 221.335 276.866 221.157 277.177 221.04C277.807 220.803 278.504 220.825 279.117 221.103C283.916 223.276 291.219 224.341 296.878 223.693C302.866 223.008 308.021 220.571 311.393 216.831C311.478 216.737 311.561 216.643 311.642 216.548H311.564C302.111 216.548 295.95 213.842 293.243 208.498C292.466 206.876 292.069 205.099 292.083 203.301C292.097 201.502 292.521 199.731 293.322 198.121C294.136 196.312 295.346 194.708 296.863 193.43C298.38 192.152 300.166 191.232 302.087 190.738C309.059 189.113 316.86 193.59 319.479 200.719C320.644 203.998 320.833 207.544 320.024 210.929C326.511 210.197 332.826 208.36 338.694 205.498C346.308 201.655 351.629 196.182 354.081 189.672C354.195 189.356 354.371 189.067 354.598 188.819C354.826 188.572 355.1 188.373 355.405 188.232C355.71 188.092 356.04 188.014 356.375 188.002C356.711 187.99 357.045 188.044 357.359 188.163C357.673 188.281 357.961 188.461 358.205 188.691C358.45 188.921 358.646 189.198 358.782 189.504C358.919 189.811 358.993 190.142 359.001 190.477C359.009 190.813 358.95 191.147 358.828 191.46C355.918 199.18 349.748 205.6 340.98 210.026C334.357 213.368 326.494 215.488 317.996 216.244C317.209 217.676 316.258 219.012 315.163 220.226C310.961 224.885 304.675 227.906 297.458 228.732C296.105 228.883 294.745 228.956 293.385 228.953C287.724 228.954 281.551 227.77 277.025 225.723ZM314.717 202.465C312.982 197.739 307.726 194.63 303.24 195.677C302.069 196.002 300.985 196.582 300.065 197.375C299.145 198.169 298.413 199.157 297.92 200.267C297.446 201.182 297.187 202.191 297.161 203.221C297.134 204.25 297.342 205.272 297.769 206.209C299.624 209.873 304.604 211.643 312.583 211.468C313.259 211.453 313.932 211.429 314.601 211.397C315.658 208.52 315.7 205.368 314.717 202.465Z" fill="white"/>
<path d="M40.3714 31.5544C39.6994 31.5259 39.0437 31.7654 38.5483 32.2204C38.3031 32.4456 38.1046 32.717 37.9642 33.019C37.8238 33.3209 37.7443 33.6476 37.7301 33.9803C37.716 34.313 37.7675 34.6453 37.8818 34.9581C37.996 35.2709 38.1708 35.5581 38.3961 35.8034C38.851 36.2987 39.4841 36.593 40.156 36.6216C45.4191 36.8447 52.4186 39.1869 57.1773 42.3161C62.2134 45.6274 65.7163 50.1273 67.0403 54.9861C67.0733 55.107 67.1049 55.2285 67.1351 55.3505L67.0647 55.3149C58.6276 51.0536 51.9081 50.691 47.0825 54.2409C45.6577 55.3381 44.5021 56.746 43.7037 58.3573C42.9053 59.9686 42.4852 61.7409 42.4754 63.5392C42.3852 65.521 42.7425 67.4978 43.5207 69.3227C44.2989 71.1477 45.4779 72.774 46.9705 74.081C52.4608 78.6742 61.4422 78.1953 66.9937 73.013C69.5119 70.611 71.2798 67.5306 72.0834 64.1446C77.5443 67.7226 82.3525 72.2088 86.2998 77.409C91.3635 84.2724 93.6457 91.5563 92.8998 98.4727C92.8596 98.806 92.886 99.144 92.9775 99.467C93.0689 99.79 93.2236 100.092 93.4325 100.355C93.6414 100.617 93.9004 100.836 94.1945 100.998C94.4886 101.16 94.8119 101.262 95.1457 101.298C95.4795 101.334 95.8171 101.303 96.139 101.208C96.4609 101.112 96.7606 100.954 97.0208 100.742C97.281 100.53 97.4964 100.268 97.6547 99.9718C97.813 99.6757 97.9109 99.3512 97.9428 99.017C98.8263 90.8143 96.2128 82.3019 90.3816 74.3982C85.9767 68.4288 79.9136 62.9922 72.6689 58.4865C72.6121 56.853 72.3662 55.2316 71.9361 53.6547C70.2853 47.6016 66.036 42.0715 59.9664 38.0803C58.8272 37.336 57.6466 36.657 56.4304 36.0466C51.3776 33.4939 45.3341 31.7671 40.3714 31.5544ZM63.531 69.307C59.8514 72.7432 53.758 73.1488 50.226 70.1923C49.3274 69.3746 48.621 68.368 48.1577 67.2449C47.6945 66.1217 47.4857 64.9099 47.5465 63.6964C47.536 62.6669 47.7595 61.6484 48.2001 60.7179C48.6407 59.7873 49.287 58.969 50.09 58.3247C53.3981 55.8908 58.6415 56.5559 65.6844 60.3094C66.2812 60.6277 66.8709 60.9521 67.4535 61.2825C67.1007 64.3268 65.7165 67.1586 63.531 69.307Z" fill="white"/>
</g>
</g>
<defs>
<clipPath id="clip0_1_111">
<rect x="-14" width="425" height="248" rx="16" fill="white"/>
</clipPath>
<clipPath id="clip1_1_111">
<rect width="353.827" height="249" fill="white" transform="matrix(-1 0 0 1 376 0)"/>
</clipPath>
</defs>
</svg>
