<svg width="409" height="248" viewBox="0 0 409 248" fill="none" xmlns="http://www.w3.org/2000/svg">
<rect width="409" height="248" fill="#EDF9FC"/>
<path d="M288.637 170.633C288.638 170.627 288.638 170.621 288.638 170.615C288.638 170.609 288.637 170.623 288.637 170.633Z" fill="#FFBEB6"/>
<path d="M286.47 169.789L286.47 169.796C286.476 169.808 286.469 169.786 286.47 169.789Z" fill="#061322"/>
<path d="M38.674 11.4588C38.0386 11.5869 37.4783 11.9721 37.1162 12.5296C36.9369 12.8056 36.8117 13.1157 36.7478 13.442C36.6838 13.7683 36.6823 14.1045 36.7434 14.4314C36.8044 14.7583 36.9269 15.0695 37.1037 15.3473C37.2805 15.625 37.5082 15.8638 37.7739 16.0501C38.3104 16.4263 38.9687 16.5657 39.6041 16.4375C44.5806 15.4331 51.6558 16.087 56.8092 18.0264C62.2629 20.0785 66.5469 23.6425 68.8714 28.0614C68.9294 28.1714 68.9861 28.2822 69.0415 28.3939L68.9677 28.3756C60.1182 26.1887 53.7472 27.3955 50.0229 31.9684C48.9342 33.3662 48.1669 35.0039 47.7794 36.7565C47.392 38.5091 47.3945 40.3305 47.7869 42.0819C48.1452 44.0306 48.9212 45.8705 50.0572 47.465C51.1932 49.0595 52.6601 50.3678 54.3491 51.2928C60.5144 54.4864 68.8147 51.9361 72.8539 45.6069C74.6747 42.6862 75.6416 39.2795 75.6376 35.7995C81.5485 38.0125 87.0513 41.2604 91.9078 45.4024C98.1806 50.9033 101.944 57.4587 102.79 64.3593C102.827 64.6929 102.927 65.0155 103.085 65.3085C103.243 65.6015 103.455 65.859 103.709 66.0662C103.963 66.2733 104.255 66.4259 104.566 66.5152C104.878 66.6045 105.203 66.6286 105.524 66.5862C105.844 66.5437 106.153 66.4356 106.433 66.2681C106.713 66.1005 106.958 65.8769 107.155 65.6101C107.351 65.3434 107.494 65.0388 107.576 64.714C107.658 64.3893 107.677 64.0509 107.632 63.7184C106.627 55.5346 102.28 47.8612 95.0562 41.5266C89.5997 36.7424 82.7099 32.8614 74.9221 30.16C74.504 28.5843 73.9117 27.0643 73.1569 25.6302C70.2598 20.1255 65.047 15.7325 58.4739 13.2589C57.2413 12.7993 55.9846 12.4128 54.7098 12.1014C49.4099 10.791 43.367 10.5139 38.674 11.4588ZM68.7848 42.8058C66.1079 47.0021 60.4946 48.8108 56.528 46.7547C55.5042 46.1679 54.6183 45.3527 53.9337 44.3677C53.2492 43.3827 52.7831 42.2524 52.569 41.058C52.3293 40.059 52.311 39.0165 52.5157 38.0091C52.7203 37.0017 53.1425 36.0558 53.7503 35.2427C56.3033 32.1075 61.3601 31.5376 68.7911 33.554C69.4209 33.7252 70.0453 33.9039 70.6644 34.0901C71.0141 37.1331 70.3508 40.2088 68.7848 42.8058Z" fill="white"/>
<path d="M303.613 187.723C303.023 187.445 302.564 186.936 302.335 186.307C302.222 185.995 302.17 185.663 302.18 185.33C302.191 184.998 302.264 184.67 302.396 184.367C302.528 184.063 302.717 183.79 302.951 183.562C303.184 183.335 303.459 183.157 303.759 183.04C304.365 182.803 305.036 182.825 305.626 183.103C310.244 185.276 317.273 186.341 322.718 185.693C328.481 185.008 333.442 182.571 336.687 178.831C336.768 178.737 336.848 178.643 336.927 178.548H336.851C327.755 178.548 321.825 175.842 319.22 170.498C318.472 168.876 318.09 167.099 318.104 165.301C318.117 163.502 318.525 161.731 319.297 160.121C320.079 158.312 321.244 156.708 322.704 155.43C324.164 154.152 325.882 153.232 327.731 152.738C334.441 151.113 341.948 155.59 344.468 162.719C345.589 165.998 345.772 169.544 344.993 172.929C351.236 172.197 357.313 170.36 362.96 167.498C370.287 163.655 375.408 158.182 377.768 151.672C377.878 151.356 378.047 151.067 378.266 150.819C378.484 150.572 378.748 150.373 379.042 150.232C379.335 150.092 379.652 150.014 379.975 150.002C380.298 149.99 380.62 150.044 380.923 150.163C381.225 150.281 381.502 150.461 381.737 150.691C381.972 150.921 382.161 151.198 382.292 151.504C382.423 151.811 382.495 152.142 382.502 152.477C382.51 152.813 382.453 153.147 382.336 153.46C379.536 161.18 373.598 167.6 365.16 172.026C358.786 175.368 351.219 177.488 343.041 178.244C342.283 179.676 341.369 181.012 340.315 182.226C336.271 186.885 330.221 189.906 323.276 190.732C321.975 190.883 320.666 190.956 319.356 190.953C313.908 190.954 307.968 189.77 303.613 187.723ZM339.886 164.465C338.216 159.739 333.158 156.63 328.841 157.677C327.714 158.002 326.671 158.582 325.785 159.375C324.9 160.169 324.195 161.157 323.721 162.267C323.265 163.182 323.015 164.191 322.99 165.221C322.965 166.25 323.165 167.272 323.575 168.209C325.361 171.873 330.154 173.643 337.832 173.468C338.483 173.453 339.13 173.429 339.774 173.397C340.792 170.52 340.831 167.368 339.886 164.465Z" fill="white"/>
<path d="M62.2756 201.018C61.8979 201.018 61.5259 200.923 61.1915 200.741C58.1701 199.095 55.5143 196.81 53.3955 194.032C51.2767 191.255 49.7419 188.046 48.8903 184.614C48.0386 181.182 47.8891 177.602 48.4512 174.106C49.0134 170.61 50.2747 167.275 52.1539 164.317C54.7965 160.158 58.457 157.034 61.9988 154.012L62.1044 153.922C65.207 151.273 68.7273 148.271 70.9767 144.548C73.2506 140.788 73.8651 136.625 72.6205 133.411C71.4678 130.435 67.7935 127.935 64.784 129.173C64.4983 129.291 64.1931 129.349 63.8858 129.344C63.5785 129.339 63.2752 129.271 62.9932 129.144C62.7111 129.017 62.4559 128.834 62.242 128.605C62.0282 128.375 61.8598 128.105 61.7467 127.808C61.6336 127.511 61.5778 127.194 61.5826 126.874C61.5874 126.555 61.6527 126.24 61.7747 125.947C61.8968 125.654 62.0731 125.389 62.2938 125.166C62.5145 124.944 62.7751 124.769 63.0608 124.652C68.2136 122.532 74.7094 125.776 76.963 131.596C78.7655 136.251 78.0095 142.061 74.9397 147.136C72.2834 151.528 68.454 154.797 65.0752 157.681L64.9695 157.771C61.6981 160.561 58.315 163.451 56.062 166.997C54.5433 169.388 53.5239 172.082 53.0695 174.908C52.6152 177.733 52.7361 180.626 53.4243 183.4C54.1126 186.173 55.3529 188.766 57.0653 191.011C58.7776 193.256 60.924 195.103 63.3657 196.432C63.8302 196.684 64.1999 197.091 64.4154 197.588C64.6309 198.084 64.6799 198.641 64.5545 199.17C64.429 199.699 64.1365 200.168 63.7236 200.504C63.3108 200.839 62.8015 201.021 62.2774 201.02L62.2756 201.018Z" fill="white"/>
<path d="M158.555 41.5545C158.138 42.4829 157.426 43.2813 156.542 43.7867C115.357 67.3494 147.692 138.057 138.082 186.486C137.743 188.197 138.466 189.969 140.159 190.386C158.744 194.964 226.447 173.585 255.963 137.743C256.639 136.922 256.936 135.923 256.793 134.869C255.126 122.608 242.993 43.125 206.739 27.1428C174.043 12.7294 161.307 35.4284 158.555 41.5545Z" fill="#061322"/>
<path d="M189.658 185.703L173.738 143.466L182.001 135.203L181.677 132.545C180.775 125.9 180.445 123.174 180.445 123.235C180.445 123.297 166.122 122.636 160.958 104.685C158.39 95.7339 157.006 80.7644 156.269 68.4665C155.58 57.3943 161.227 42.9894 172.313 42.831L207.561 47.2586C209.185 47.2292 210.762 47.8109 211.978 48.8883C213.195 49.9658 213.963 51.4606 214.13 53.077L220.237 127.174L224.913 131.175L230.545 182.494L189.658 185.703Z" fill="#FFBEB6"/>
<path d="M180.465 123.215C189.105 122.283 197.317 118.972 204.187 113.651C204.187 113.651 199.594 127.174 181.051 127.718L180.465 123.215Z" fill="#FFBEB6"/>
<path d="M179.412 99.59C180.789 98.0269 184.597 95.5412 185.85 95.2313C187.103 94.9215 187.028 96.457 187.916 97.5449C188.366 98.1394 188.645 98.846 188.721 99.5878C188.797 100.33 188.669 101.078 188.35 101.752C187.571 103.288 185.933 104.617 184.438 104.451C182.944 104.286 181.54 102.792 180.307 101.931C179.936 101.718 179.62 101.42 179.384 101.064C179.264 100.865 179.195 100.639 179.186 100.406C179.176 100.174 179.225 99.9427 179.329 99.7346" fill="#FFBEB6"/>
<path d="M212.126 75.9651C212.36 75.8136 221.883 71.3654 223.143 81.5907C224.403 91.816 213.84 90.9484 213.785 90.6799C213.73 90.4113 212.126 75.9651 212.126 75.9651Z" fill="#FFBEB6"/>
<path d="M216.429 86.4108C216.471 86.3695 216.622 86.5141 216.939 86.6105C217.384 86.7425 217.863 86.6955 218.275 86.4796C219.308 85.9494 220.01 84.1247 219.831 82.2794C219.754 81.3983 219.479 80.5461 219.025 79.7867C218.892 79.4791 218.685 79.2086 218.424 78.9987C218.162 78.7887 217.853 78.6456 217.524 78.5817C217.312 78.5542 217.096 78.6009 216.915 78.7138C216.733 78.8267 216.595 78.999 216.526 79.2014C216.429 79.5044 216.526 79.6972 216.464 79.7247C216.402 79.7523 216.223 79.5802 216.257 79.1464C216.279 78.8854 216.394 78.6409 216.581 78.4578C216.706 78.3344 216.854 78.2373 217.018 78.1723C217.181 78.1072 217.355 78.0755 217.531 78.0791C217.965 78.1088 218.385 78.2515 218.747 78.493C219.109 78.7346 219.402 79.0666 219.597 79.4562C220.139 80.2812 220.471 81.2272 220.561 82.2105C220.747 84.2762 219.927 86.3419 218.495 86.941C218.229 87.0544 217.942 87.1065 217.653 87.0934C217.365 87.0803 217.083 87.0023 216.829 86.8652C216.491 86.6518 216.429 86.4314 216.429 86.4108Z" fill="#FFBEB6"/>
<path d="M217.5 71.0635C217.232 64.1296 216.936 57.0511 214.45 50.5716C213.974 49.0702 213.123 47.7147 211.978 46.633C210.954 45.8677 209.781 45.3258 208.535 45.0424C206.614 44.4984 206.091 43.197 204.101 43.0524C196.526 36.6143 185.654 34.4109 176.055 36.9999C166.457 39.5889 158.283 46.7845 154.138 55.8254C150.058 65.0272 149.761 75.4644 153.312 84.8831C152.671 77.5154 157.34 70.609 163.062 65.9199C168.784 61.2307 175.628 58.1184 181.653 53.8699C179.697 55.1954 176.383 57.2716 175.5 57.7964C174.396 58.4529 172.311 59.5445 171.5 60.1745C176.279 58.8938 188.539 56.5553 192.843 54.1729C193.813 53.6442 194.749 53.0555 195.645 52.4101C195.741 53.5352 196.052 54.6313 196.561 55.6395C198.179 58.8138 201.649 60.5077 204.294 62.8971C204.638 63.1668 204.913 63.5135 205.099 63.9093C205.265 64.563 205.219 65.2525 204.968 65.8786C204.292 67.9388 204.057 70.1184 204.28 72.2754C204.603 74.41 205.801 76.5101 207.723 77.4397C207.007 78.5665 206.66 79.8887 206.732 81.2219C206.803 82.5551 207.289 83.8326 208.122 84.8762C208.346 85.1948 208.675 85.424 209.052 85.5235C209.678 85.613 210.201 85.069 210.56 84.5457C211.616 83.0219 212.341 81.2929 212.687 79.471C212.739 78.6946 212.975 77.9417 213.376 77.2744C214.064 76.3999 215.345 76.2209 216.192 75.4841C217.528 74.4444 217.562 72.6403 217.5 71.0635Z" fill="#061322"/>
<path d="M184.218 178.445L235.448 176.689L240.199 246.648L195.373 247.275L184.218 178.445Z" fill="#00A0D0"/>
<path d="M224.086 126.486C224.775 125.611 262.984 151.529 264.712 154.627C266.44 157.726 275.646 247.282 275.646 247.282H225.732C225.732 247.282 221.146 173.522 221.387 166.719C221.628 159.916 224.086 126.486 224.086 126.486Z" fill="#6B00A8"/>
<path d="M108.875 247.674C108.875 247.674 103.242 236.085 103.869 230.46C104.496 224.834 108.875 213.548 108.875 213.548L120.147 193.511C120.147 193.511 122.405 176.813 123.652 173.68C124.898 170.547 131.501 149.367 139.31 144.388C147.118 139.41 170.86 135.995 170.86 135.995L181.375 128.186C181.375 128.186 191.834 159.069 193.397 167.524C194.96 175.98 203.726 247.674 203.726 247.674H108.875Z" fill="#6B00A8"/>
<path d="M238.222 135.754C238.222 135.754 237.734 135.843 236.845 136.064C235.617 136.378 234.424 136.816 233.285 137.372C232.498 137.746 231.739 138.176 231.013 138.66C230.182 139.201 229.456 139.889 228.872 140.691C228.242 141.575 227.923 142.643 227.963 143.727C227.994 144.29 228.156 144.837 228.438 145.325C228.747 145.811 229.189 146.199 229.712 146.44C230.228 146.693 230.81 146.782 231.378 146.695C231.929 146.611 232.425 146.311 232.755 145.862C233.041 145.417 233.201 144.903 233.219 144.375C233.237 143.847 233.113 143.323 232.858 142.86C232.616 142.441 232.289 142.079 231.898 141.795C231.506 141.511 231.059 141.314 230.586 141.214C229.749 141.018 228.877 141.029 228.045 141.249C226.837 141.614 225.711 142.212 224.733 143.011C224.045 143.555 223.645 143.886 223.625 143.865C223.604 143.844 223.701 143.762 223.873 143.597C224.045 143.431 224.3 143.19 224.644 142.908C225.608 142.048 226.744 141.403 227.977 141.014C228.849 140.764 229.769 140.736 230.655 140.932C231.175 141.034 231.666 141.247 232.097 141.554C232.528 141.862 232.889 142.257 233.155 142.715C233.44 143.234 233.58 143.82 233.56 144.411C233.539 145.003 233.359 145.578 233.038 146.075C232.662 146.597 232.095 146.949 231.461 147.053C230.82 147.153 230.164 147.055 229.581 146.771C228.994 146.501 228.498 146.066 228.156 145.518C227.843 144.98 227.664 144.376 227.632 143.755C227.593 142.592 227.942 141.448 228.624 140.505C229.238 139.684 229.999 138.983 230.869 138.439C231.614 137.958 232.395 137.532 233.203 137.165C234.365 136.625 235.584 136.218 236.838 135.953C237.279 135.864 237.63 135.823 237.864 135.795C237.981 135.765 238.102 135.751 238.222 135.754Z" fill="white"/>
<path d="M252.841 168.667L251.739 154.82C251.739 154.82 244.227 153.367 241.562 151.673C238.897 149.98 234.022 146.454 234.022 146.454C234.022 146.454 232.845 150.682 230.421 150.923L228.238 151.171L228.135 142.646C228.135 142.646 227.722 146.475 224.575 147.067C223.887 147.205 223.852 147.067 223.852 147.067L221.724 135.905C221.724 135.905 219.204 139.169 214.598 136.993C214.598 136.993 222.062 123.979 223.515 123.497C224.968 123.015 232.817 122.809 232.817 122.809C232.817 122.809 243.717 122.12 244.929 122.588C246.141 123.056 247.835 124.984 247.835 124.984C247.835 124.984 260.677 137.344 264.795 141.462C268.042 144.889 270.23 149.181 271.095 153.822C271.343 155.998 273.161 165.08 273.161 165.08" fill="#FFBEB6"/>
<path d="M273.202 165.114L273.14 164.887L272.995 164.199C272.871 163.593 272.686 162.718 272.451 161.575C272.217 160.432 271.949 159.014 271.625 157.354C271.474 156.528 271.308 155.633 271.15 154.676C271.067 154.201 271.026 153.698 270.93 153.202C270.833 152.706 270.696 152.197 270.544 151.68C269.857 149.404 268.868 147.229 267.604 145.215C266.891 144.078 266.073 143.01 265.159 142.027C264.202 141.021 263.128 140.037 262.068 138.99L247.752 125.108C247.321 124.622 246.862 124.162 246.375 123.731C245.916 123.286 245.366 122.943 244.764 122.726C244.109 122.634 243.449 122.595 242.788 122.609C242.099 122.609 241.411 122.609 240.722 122.609C237.968 122.671 235.165 122.843 232.28 122.981C230.841 123.022 229.388 123.077 227.928 123.16C227.199 123.201 226.462 123.249 225.725 123.311C225.001 123.354 224.281 123.462 223.577 123.635C223.294 123.823 223.042 124.056 222.833 124.323C222.599 124.613 222.365 124.902 222.144 125.205C221.704 125.811 221.277 126.431 220.857 127.064C220.024 128.317 219.211 129.612 218.405 130.92C217.159 132.986 215.947 134.996 214.784 137.014L214.701 136.766C215.846 137.342 217.13 137.581 218.405 137.455C219.645 137.288 220.783 136.682 221.614 135.747L221.862 135.465L221.924 135.823C222.654 139.644 223.363 143.397 224.045 146.984C224.045 146.881 224.01 146.909 223.997 146.888H224.079C224.146 146.895 224.213 146.895 224.279 146.888C224.416 146.873 224.552 146.847 224.685 146.812L225.085 146.702L225.463 146.544C225.958 146.308 226.395 145.967 226.744 145.545C227.423 144.683 227.856 143.652 227.997 142.564H228.328C228.328 145.511 228.351 148.357 228.397 151.102L228.225 150.951L230.345 150.716C231.002 150.631 231.605 150.308 232.039 149.808C232.897 148.808 233.527 147.633 233.885 146.365L233.94 146.179L234.105 146.289L238.746 149.498L240.929 151.013C241.605 151.514 242.343 151.926 243.125 152.238C244.591 152.819 246.093 153.304 247.622 153.691C249.074 154.07 250.458 154.38 251.753 154.655H251.829V154.731C252.152 159.11 252.414 162.574 252.593 164.949C252.676 166.127 252.738 167.015 252.786 167.655C252.786 167.951 252.786 168.185 252.827 168.344C252.832 168.422 252.832 168.5 252.827 168.578C252.827 168.578 252.827 168.502 252.827 168.344C252.827 168.185 252.786 167.951 252.758 167.655C252.703 167.029 252.621 166.127 252.517 164.949C252.318 162.574 252.028 159.117 251.657 154.745L251.739 154.827C250.424 154.572 249.04 154.263 247.608 153.884C246.066 153.503 244.55 153.023 243.07 152.445C242.273 152.131 241.521 151.714 240.832 151.205L238.636 149.697C237.141 148.671 235.585 147.632 233.981 146.502L234.201 146.427C233.836 147.744 233.187 148.966 232.301 150.007C231.817 150.563 231.146 150.922 230.414 151.013L228.3 151.254H228.128V151.081C228.101 148.327 228.071 145.479 228.039 142.536H228.369C228.221 143.689 227.764 144.781 227.047 145.697C226.671 146.155 226.201 146.528 225.67 146.792L225.257 146.964L224.823 147.081C224.676 147.119 224.526 147.146 224.375 147.163H224.134H223.997H223.914C223.891 147.158 223.869 147.146 223.852 147.129C223.852 147.129 223.804 147.129 223.769 146.991L221.642 135.83L221.959 135.905C221.072 136.917 219.849 137.572 218.516 137.751C217.178 137.896 215.826 137.657 214.618 137.062L214.446 136.979L214.543 136.814C215.713 134.785 216.923 132.749 218.171 130.707C218.977 129.398 219.79 128.104 220.63 126.837C221.05 126.203 221.477 125.577 221.931 124.964C222.151 124.661 222.385 124.365 222.62 124.069C222.861 123.744 223.163 123.468 223.508 123.256C224.246 123.072 225 122.959 225.759 122.919C226.496 122.85 227.24 122.809 227.97 122.76C229.436 122.685 230.896 122.63 232.335 122.588C235.2 122.457 238.023 122.285 240.777 122.23C241.466 122.23 242.154 122.23 242.843 122.23C243.534 122.219 244.225 122.263 244.909 122.361C245.561 122.59 246.156 122.959 246.651 123.442C247.151 123.87 247.622 124.33 248.062 124.819L262.336 138.728C263.404 139.782 264.464 140.794 265.428 141.779C266.347 142.781 267.17 143.866 267.886 145.022C269.154 147.058 270.14 149.256 270.819 151.556C270.964 152.08 271.102 152.589 271.191 153.099C271.281 153.608 271.329 154.104 271.412 154.579C271.556 155.536 271.708 156.425 271.859 157.258C272.162 158.917 272.424 160.336 272.637 161.493C272.851 162.649 273.016 163.51 273.133 164.123C273.181 164.412 273.223 164.632 273.25 164.811C273.278 164.99 273.202 165.114 273.202 165.114Z" fill="#FFBEB6"/>
<path d="M234.69 123.497C234.69 123.559 233.547 123.766 231.771 124.379C229.467 125.207 227.236 126.222 225.098 127.415C224.487 127.724 223.931 128.131 223.453 128.62C223.024 129.087 222.681 129.625 222.44 130.211C221.997 131.204 221.781 132.284 221.807 133.371C221.807 134.308 221.876 135.072 221.883 135.596C221.908 135.871 221.896 136.149 221.848 136.422C221.784 136.155 221.747 135.883 221.738 135.609C221.69 135.079 221.587 134.329 221.552 133.378C221.489 132.248 221.689 131.119 222.138 130.08C222.383 129.453 222.743 128.876 223.198 128.379C223.7 127.86 224.284 127.427 224.926 127.099C227.079 125.889 229.346 124.897 231.695 124.138C232.41 123.916 233.136 123.734 233.871 123.594C234.138 123.526 234.414 123.493 234.69 123.497Z" fill="#FFBEB6"/>
<path d="M242.87 125.935C242.526 126.07 242.171 126.179 241.81 126.258C241.121 126.465 240.137 126.74 238.952 127.195C237.565 127.728 236.229 128.385 234.959 129.157C234.229 129.577 233.458 130.025 232.638 130.452C231.819 130.879 230.931 131.25 230.139 131.753C229.745 131.993 229.4 132.303 229.12 132.669C228.865 133.035 228.677 133.443 228.562 133.874C228.346 134.718 228.203 135.58 228.135 136.449C228.036 137.932 228.036 139.421 228.135 140.904C228.197 142.178 228.259 143.211 228.273 143.927C228.305 144.296 228.305 144.667 228.273 145.036C228.202 144.672 228.161 144.304 228.149 143.934C228.087 143.156 227.997 142.144 227.894 140.918C227.766 139.423 227.747 137.92 227.839 136.422C227.903 135.53 228.044 134.645 228.259 133.777C228.383 133.307 228.588 132.862 228.865 132.462C229.167 132.058 229.543 131.714 229.973 131.45C230.827 130.92 231.709 130.576 232.514 130.142C233.32 129.708 234.091 129.281 234.828 128.868C236.123 128.106 237.485 127.466 238.897 126.954C239.852 126.624 240.824 126.348 241.81 126.127C242.156 126.03 242.512 125.965 242.87 125.935Z" fill="#FFBEB6"/>
<path d="M246.864 129.564C246.583 129.708 246.287 129.824 245.983 129.908C245.411 130.114 244.605 130.41 243.579 130.831C240.948 131.873 238.556 133.441 236.549 135.437C235.489 136.556 234.677 137.887 234.167 139.341C233.753 140.535 233.541 141.789 233.54 143.053C233.572 144.215 233.733 145.37 234.022 146.495C234.022 146.495 233.974 146.427 233.912 146.275C233.822 146.05 233.747 145.82 233.685 145.587C233.437 144.752 233.302 143.888 233.285 143.018C233.208 140.102 234.29 137.274 236.294 135.155C238.334 133.139 240.786 131.591 243.483 130.617C244.509 130.225 245.349 129.928 245.941 129.798C246.24 129.688 246.549 129.609 246.864 129.564Z" fill="#FFBEB6"/>
<path d="M251.016 138.191C251.016 138.191 250.975 138.253 250.851 138.329C250.671 138.436 250.472 138.508 250.266 138.542C249.502 138.629 248.73 138.51 248.028 138.198C247.558 138.01 247.072 137.867 246.575 137.771C246.012 137.69 245.438 137.757 244.908 137.964C243.689 138.526 242.535 139.218 241.466 140.03C240.358 140.764 239.396 141.698 238.629 142.784C238.136 143.785 237.528 144.726 236.818 145.586C236.515 145.903 236.167 146.172 235.785 146.385C235.487 146.544 235.152 146.62 234.814 146.605C234.606 146.598 234.399 146.561 234.201 146.495C234.07 146.447 234.002 146.42 234.008 146.406C234.015 146.392 234.298 146.475 234.814 146.468C235.123 146.454 235.423 146.364 235.689 146.206C236.042 145.989 236.362 145.722 236.639 145.414C237.302 144.537 237.876 143.596 238.353 142.605C239.119 141.455 240.107 140.469 241.259 139.706C241.851 139.279 242.437 138.893 243.008 138.522C243.561 138.145 244.157 137.838 244.785 137.606C245.367 137.388 245.996 137.327 246.609 137.427C247.121 137.54 247.622 137.701 248.103 137.909C248.765 138.232 249.496 138.386 250.231 138.356C250.498 138.33 250.761 138.275 251.016 138.191Z" fill="#FFBEB6"/>
<path d="M255.767 154.428C255.58 154.346 255.406 154.237 255.251 154.104C254.802 153.781 254.376 153.427 253.977 153.044C251.294 150.514 249.479 147.2 248.792 143.576C248.682 143.033 248.61 142.483 248.579 141.93C248.544 141.73 248.544 141.525 248.579 141.324C248.641 141.324 248.716 142.178 249.033 143.528C249.854 147.052 251.628 150.282 254.163 152.865C255.12 153.849 255.809 154.38 255.767 154.428Z" fill="#FFBEB6"/>
<path d="M266.571 152.293C266.332 152.758 265.999 153.168 265.593 153.498C264.654 154.348 263.536 154.976 262.323 155.337C261.108 155.697 259.827 155.777 258.577 155.571C258.057 155.514 257.554 155.355 257.096 155.102C257.096 155.041 257.682 155.22 258.611 155.323C259.823 155.451 261.049 155.339 262.217 154.993C263.386 154.647 264.475 154.073 265.421 153.305C266.151 152.713 266.523 152.252 266.571 152.293Z" fill="#FFBEB6"/>
<path d="M280.466 242.558C277.157 245.221 272.942 246.494 268.711 246.108C264.481 245.723 260.566 243.709 257.792 240.492C254.624 236.788 252.111 232.229 252.497 227.361C253.474 215.139 252.882 166.719 252.882 166.719L272.314 161.727C272.314 161.727 287.29 220.255 288.027 230.467C288.364 234.935 284.701 239.191 280.466 242.558Z" fill="#FFBEB6"/>
<path d="M124.03 222.039H146.326L158.665 217.701L162.253 208.143C162.253 208.143 169.497 202.635 177.023 209.589C184.549 216.544 189.19 230.46 189.19 230.46L169.221 237.414C169.221 237.414 156.765 246.724 155.312 246.751L115.451 247.288C115.451 247.288 115.051 229.571 124.03 222.039Z" fill="#FFBEB6"/>
<path d="M175.039 217.549L172.43 175.429C172.41 175.056 172.467 174.682 172.596 174.331C172.726 173.98 172.926 173.659 173.184 173.388C173.441 173.116 173.752 172.9 174.096 172.753C174.439 172.606 174.81 172.53 175.184 172.53H198.148C198.856 172.53 199.538 172.802 200.051 173.29C200.564 173.779 200.869 174.446 200.902 175.154L202.555 217.267C202.567 217.636 202.504 218.004 202.371 218.348C202.238 218.693 202.037 219.007 201.78 219.273C201.523 219.538 201.216 219.749 200.876 219.893C200.535 220.037 200.17 220.111 199.8 220.111H177.766C177.073 220.105 176.407 219.839 175.901 219.364C175.396 218.889 175.088 218.241 175.039 217.549Z" fill="#061322"/>
<path d="M199.904 198.6C199.877 198.431 199.863 198.261 199.862 198.09C199.862 197.718 199.821 197.229 199.794 196.623C199.752 195.308 199.697 193.477 199.628 191.232C199.56 188.987 199.504 186.24 199.429 183.238C199.392 181.727 199.358 180.153 199.325 178.514C199.36 177.701 199.267 176.888 199.05 176.104C198.92 175.727 198.68 175.399 198.361 175.161C198.028 174.933 197.641 174.793 197.239 174.754C196.393 174.706 195.544 174.706 194.698 174.754L192.199 174.809L187.475 174.899L179.481 175.037L176.41 175.078C175.645 175.036 174.877 175.085 174.124 175.223C173.893 175.273 173.677 175.375 173.491 175.52C173.305 175.666 173.154 175.851 173.05 176.063C172.995 176.22 172.967 176.385 172.967 176.551C172.91 176.386 172.91 176.207 172.967 176.042C173.057 175.805 173.2 175.591 173.387 175.419C173.573 175.247 173.797 175.121 174.041 175.05C174.805 174.882 175.587 174.81 176.368 174.837L179.439 174.741L187.434 174.527L192.157 174.417L194.657 174.355C195.522 174.307 196.388 174.307 197.253 174.355C197.714 174.406 198.156 174.569 198.54 174.83C198.91 175.111 199.186 175.498 199.332 175.939C199.562 176.76 199.659 177.613 199.621 178.466C199.649 180.105 199.677 181.679 199.704 183.189C199.752 186.191 199.794 188.898 199.828 191.184C199.862 193.47 199.869 195.267 199.883 196.575C199.883 197.188 199.883 197.677 199.883 198.042C199.909 198.227 199.916 198.413 199.904 198.6Z" fill="#455A64"/>
<path d="M161.812 209.314V205.024C161.812 205.024 166.026 195.109 165.902 195.474C165.778 195.838 173.373 190.619 173.373 190.619C173.632 192.802 173.548 195.011 173.125 197.167C172.631 198.789 171.773 200.277 170.619 201.519L170.027 206.146L179.57 198.372L190.952 192.389C191.628 192.334 192.306 192.456 192.92 192.742C193.534 193.028 194.064 193.469 194.457 194.021C195.91 195.956 193.851 197.89 192.887 198.496C191.923 199.102 183.247 205.382 183.247 205.382L178.427 210.939L179.453 212.109L187.964 206.711C187.964 206.711 198.726 198.854 201.143 198.366H201.274C201.719 198.292 202.177 198.355 202.586 198.546C202.995 198.737 203.337 199.046 203.568 199.434C203.798 199.823 203.906 200.271 203.878 200.722C203.849 201.172 203.686 201.604 203.409 201.96C200.448 205.809 195.352 212.357 195.098 212.13C194.733 211.813 183.681 219.429 183.681 219.429C183.681 219.429 194.733 215.8 195.703 214.953C196.674 214.106 206.583 203.592 206.583 203.592C206.583 203.592 207.912 203.833 208.153 206.856L207.554 209.878C207.554 209.878 207.795 210.601 208.153 212.171C208.511 213.741 202.954 224.511 202.954 224.511C202.954 224.511 181.188 236.478 179.136 236.602C177.085 236.726 169.462 236.602 169.462 236.602L161.812 209.314Z" fill="#FFBEB6"/>
<path d="M207.32 209.486C207.224 209.808 207.085 210.117 206.906 210.402C206.456 211.204 205.952 211.974 205.399 212.709C204.71 213.652 203.856 214.726 202.989 215.986C202.03 217.359 200.939 218.634 199.732 219.794C197.47 221.824 194.946 223.54 192.226 224.896C191.2 225.433 190.36 225.846 189.768 226.129C189.475 226.291 189.165 226.422 188.845 226.521C189.115 226.322 189.403 226.149 189.706 226.005L192.109 224.676C194.765 223.264 197.241 221.537 199.484 219.532C200.677 218.39 201.76 217.138 202.72 215.793C203.601 214.54 204.49 213.473 205.192 212.557C205.894 211.641 206.438 210.877 206.783 210.333C206.944 210.04 207.124 209.757 207.32 209.486Z" fill="#FFBEB6"/>
<path d="M128.547 219.574C127.121 220.246 125.776 221.08 124.54 222.059C121.647 224.552 119.463 227.763 118.205 231.369C116.983 234.986 116.208 238.739 115.898 242.544C115.761 243.963 115.65 245.126 115.568 245.987C115.526 246.366 115.499 246.676 115.471 246.93C115.469 247.041 115.448 247.15 115.409 247.254C115.399 247.144 115.399 247.034 115.409 246.924C115.409 246.669 115.409 246.352 115.444 245.98C115.444 245.161 115.54 243.97 115.657 242.503C115.887 238.665 116.625 234.874 117.854 231.231C119.128 227.567 121.381 224.321 124.368 221.846C125.279 221.117 126.275 220.501 127.335 220.014C127.707 219.828 128.024 219.739 128.217 219.656C128.324 219.619 128.435 219.591 128.547 219.574Z" fill="#061322"/>
<path d="M261.233 88.3854L267.848 76.7132L268.139 76.1992L267.83 75.696C263.176 68.1351 261.52 59.1072 263.185 50.3868C264.85 41.6664 269.717 33.8841 276.828 28.5696C283.94 23.2551 292.782 20.7927 301.617 21.6664C310.452 22.5401 318.64 26.6867 324.573 33.2912C330.506 39.8957 333.754 48.4804 333.679 57.3581C333.603 66.2357 330.211 74.7642 324.167 81.2673C318.123 87.7703 309.865 91.7776 301.017 92.5016C292.168 93.2255 283.369 90.6137 276.349 85.1795L275.971 84.8869L275.506 84.9973L261.233 88.3854Z" fill="#00A0D0" stroke="#00A0D0" stroke-width="2"/>
<mask id="path-33-inside-1_1_152" fill="white">
<path d="M259.231 89.8883L275.757 85.9153L275.709 86.053C275.7 86.0452 275.693 86.0357 275.688 86.025C275.683 86.0143 275.681 86.0027 275.681 85.991C275.681 85.9793 275.683 85.9677 275.688 85.957C275.693 85.9463 275.7 85.9368 275.709 85.929C275.724 85.9155 275.744 85.908 275.764 85.908C275.784 85.908 275.804 85.9155 275.819 85.929C278.134 87.7033 280.648 89.2008 283.311 90.391C286.477 91.794 289.827 92.7377 293.261 93.1934C295.163 93.4497 297.085 93.5418 299.003 93.4689C299.988 93.4069 300.993 93.3794 302.005 93.2898L305.063 92.8216C314.151 91.008 322.213 85.813 327.62 78.2859C330.625 74.1163 332.705 69.3531 333.721 64.3148C334.757 58.9881 334.607 53.4986 333.28 48.2367C333.101 47.5481 332.95 46.8595 332.75 46.226L332.062 44.2636C331.572 42.9466 331.002 41.6611 330.354 40.4145C330.043 39.7809 329.693 39.1669 329.307 38.576C328.935 37.9701 328.577 37.3572 328.192 36.7582L326.911 35.0436L326.271 34.1829C326.057 33.8937 325.796 33.6458 325.582 33.3773L324.109 31.7523C323.62 31.2083 323.041 30.7607 322.518 30.2581L321.712 29.5282C321.45 29.2802 321.172 29.0502 320.879 28.8396L319.144 27.5451C318.855 27.3385 318.579 27.0975 318.27 26.9185L317.347 26.3539L315.515 25.2453L313.601 24.3088C312.972 23.9825 312.323 23.6951 311.659 23.4481C306.517 21.4103 300.982 20.556 295.464 20.9486C290.231 21.2715 285.134 22.7457 280.536 25.2659C272.308 29.8381 266.147 37.3916 263.322 46.3706C262.191 50.1935 261.647 54.166 261.71 58.1521C261.798 61.6146 262.382 65.0465 263.445 68.3429C264.335 71.1 265.544 73.7437 267.047 76.2202C267.056 76.2332 267.061 76.2488 267.061 76.2649C267.061 76.281 267.056 76.2967 267.047 76.3097L259.231 89.9159C259.528 89.3788 261.986 85.0201 266.902 76.2202V76.3097C265.383 73.8324 264.159 71.1865 263.253 68.4255C262.166 65.1121 261.565 61.6586 261.469 58.1727C261.392 54.1579 261.929 50.1548 263.06 46.3018C265.886 37.2292 272.087 29.5881 280.384 24.9561C285.003 22.3978 290.127 20.8841 295.395 20.5217C300.968 20.1233 306.559 20.9822 311.756 23.035C312.425 23.2866 313.078 23.5786 313.711 23.9094C314.352 24.2193 315.006 24.5223 315.646 24.8459L317.498 25.9683L318.428 26.5329C318.738 26.7188 319.013 26.9598 319.309 27.1733L321.065 28.4815C321.36 28.692 321.641 28.9221 321.905 29.1701L322.718 29.9069C323.248 30.4164 323.833 30.8709 324.322 31.4218L325.809 33.0606C326.05 33.336 326.312 33.5839 326.498 33.8731L327.145 34.7407L328.44 36.4759C328.832 37.0749 329.19 37.6946 329.569 38.3075C329.956 38.9062 330.308 39.527 330.622 40.1666C331.278 41.4234 331.853 42.7205 332.344 44.0501C332.587 44.7204 332.828 45.3814 333.067 46.0332C333.267 46.7218 333.425 47.4104 333.604 48.0989C334.942 53.4108 335.09 58.9528 334.038 64.3286C333.001 69.4171 330.888 74.2251 327.841 78.4305C322.382 86.0352 314.228 91.271 305.042 93.0695L301.957 93.5377C300.938 93.6273 299.926 93.6479 298.934 93.703C297.002 93.7818 295.066 93.685 293.15 93.4138C289.723 92.9448 286.379 91.9895 283.221 90.5769C280.549 89.3681 278.027 87.8497 275.709 86.053L275.833 85.929C275.849 85.9468 275.858 85.9702 275.858 85.9944C275.858 86.0187 275.849 86.042 275.833 86.0599H275.798L259.231 89.8883Z"/>
</mask>
<path d="M259.231 89.8883L275.757 85.9153L275.709 86.053C275.7 86.0452 275.693 86.0357 275.688 86.025C275.683 86.0143 275.681 86.0027 275.681 85.991C275.681 85.9793 275.683 85.9677 275.688 85.957C275.693 85.9463 275.7 85.9368 275.709 85.929C275.724 85.9155 275.744 85.908 275.764 85.908C275.784 85.908 275.804 85.9155 275.819 85.929C278.134 87.7033 280.648 89.2008 283.311 90.391C286.477 91.794 289.827 92.7377 293.261 93.1934C295.163 93.4497 297.085 93.5418 299.003 93.4689C299.988 93.4069 300.993 93.3794 302.005 93.2898L305.063 92.8216C314.151 91.008 322.213 85.813 327.62 78.2859C330.625 74.1163 332.705 69.3531 333.721 64.3148C334.757 58.9881 334.607 53.4986 333.28 48.2367C333.101 47.5481 332.95 46.8595 332.75 46.226L332.062 44.2636C331.572 42.9466 331.002 41.6611 330.354 40.4145C330.043 39.7809 329.693 39.1669 329.307 38.576C328.935 37.9701 328.577 37.3572 328.192 36.7582L326.911 35.0436L326.271 34.1829C326.057 33.8937 325.796 33.6458 325.582 33.3773L324.109 31.7523C323.62 31.2083 323.041 30.7607 322.518 30.2581L321.712 29.5282C321.45 29.2802 321.172 29.0502 320.879 28.8396L319.144 27.5451C318.855 27.3385 318.579 27.0975 318.27 26.9185L317.347 26.3539L315.515 25.2453L313.601 24.3088C312.972 23.9825 312.323 23.6951 311.659 23.4481C306.517 21.4103 300.982 20.556 295.464 20.9486C290.231 21.2715 285.134 22.7457 280.536 25.2659C272.308 29.8381 266.147 37.3916 263.322 46.3706C262.191 50.1935 261.647 54.166 261.71 58.1521C261.798 61.6146 262.382 65.0465 263.445 68.3429C264.335 71.1 265.544 73.7437 267.047 76.2202C267.056 76.2332 267.061 76.2488 267.061 76.2649C267.061 76.281 267.056 76.2967 267.047 76.3097L259.231 89.9159C259.528 89.3788 261.986 85.0201 266.902 76.2202V76.3097C265.383 73.8324 264.159 71.1865 263.253 68.4255C262.166 65.1121 261.565 61.6586 261.469 58.1727C261.392 54.1579 261.929 50.1548 263.06 46.3018C265.886 37.2292 272.087 29.5881 280.384 24.9561C285.003 22.3978 290.127 20.8841 295.395 20.5217C300.968 20.1233 306.559 20.9822 311.756 23.035C312.425 23.2866 313.078 23.5786 313.711 23.9094C314.352 24.2193 315.006 24.5223 315.646 24.8459L317.498 25.9683L318.428 26.5329C318.738 26.7188 319.013 26.9598 319.309 27.1733L321.065 28.4815C321.36 28.692 321.641 28.9221 321.905 29.1701L322.718 29.9069C323.248 30.4164 323.833 30.8709 324.322 31.4218L325.809 33.0606C326.05 33.336 326.312 33.5839 326.498 33.8731L327.145 34.7407L328.44 36.4759C328.832 37.0749 329.19 37.6946 329.569 38.3075C329.956 38.9062 330.308 39.527 330.622 40.1666C331.278 41.4234 331.853 42.7205 332.344 44.0501C332.587 44.7204 332.828 45.3814 333.067 46.0332C333.267 46.7218 333.425 47.4104 333.604 48.0989C334.942 53.4108 335.09 58.9528 334.038 64.3286C333.001 69.4171 330.888 74.2251 327.841 78.4305C322.382 86.0352 314.228 91.271 305.042 93.0695L301.957 93.5377C300.938 93.6273 299.926 93.6479 298.934 93.703C297.002 93.7818 295.066 93.685 293.15 93.4138C289.723 92.9448 286.379 91.9895 283.221 90.5769C280.549 89.3681 278.027 87.8497 275.709 86.053L275.833 85.929C275.849 85.9468 275.858 85.9702 275.858 85.9944C275.858 86.0187 275.849 86.042 275.833 86.0599H275.798L259.231 89.8883Z" fill="#00A0D0"/>
<path d="M259.231 89.8883L258.998 88.916L259.457 90.8626L259.231 89.8883ZM275.757 85.9153L276.701 86.2456L277.307 84.5141L275.523 84.943L275.757 85.9153ZM275.709 86.053L275.048 86.803L275.071 86.824L275.096 86.8434L275.709 86.053ZM275.709 85.929L276.37 86.679L276.376 86.6744L275.709 85.929ZM275.764 85.908V84.908V85.908ZM275.819 85.929L275.152 86.6744L275.181 86.6996L275.211 86.7227L275.819 85.929ZM283.311 90.391L282.903 91.3039L282.906 91.3052L283.311 90.391ZM293.261 93.1934L293.394 92.2024L293.392 92.2021L293.261 93.1934ZM299.003 93.4689L299.041 94.4682L299.054 94.4677L299.066 94.4669L299.003 93.4689ZM302.005 93.2898L302.094 94.286L302.125 94.2831L302.157 94.2783L302.005 93.2898ZM305.063 92.8216L305.214 93.8101L305.236 93.8067L305.258 93.8023L305.063 92.8216ZM327.62 78.2859L326.809 77.7012L326.808 77.7025L327.62 78.2859ZM333.721 64.3148L334.701 64.5124L334.703 64.5057L333.721 64.3148ZM333.28 48.2367L334.25 47.9923L334.248 47.985L333.28 48.2367ZM332.75 46.226L333.704 45.9254L333.699 45.9101L333.694 45.8949L332.75 46.226ZM332.062 44.2636L333.005 43.9325L333.002 43.9238L332.999 43.9152L332.062 44.2636ZM330.354 40.4145L329.456 40.8552L329.461 40.8655L329.467 40.8757L330.354 40.4145ZM329.307 38.576L328.455 39.099L328.462 39.1111L328.47 39.1229L329.307 38.576ZM328.192 36.7582L329.033 36.2169L329.014 36.1876L328.993 36.1597L328.192 36.7582ZM326.911 35.0436L326.109 35.6406L326.11 35.6421L326.911 35.0436ZM326.271 34.1829L325.466 34.7768L325.468 34.7798L326.271 34.1829ZM325.582 33.3773L326.365 32.755L326.345 32.7296L326.323 32.7056L325.582 33.3773ZM324.109 31.7523L323.365 32.4207L323.368 32.424L324.109 31.7523ZM322.518 30.2581L323.211 29.5369L323.2 29.5268L323.189 29.517L322.518 30.2581ZM321.712 29.5282L321.025 30.2544L321.033 30.2619L321.041 30.2693L321.712 29.5282ZM320.879 28.8396L320.281 29.6411L320.288 29.6464L320.295 29.6516L320.879 28.8396ZM319.144 27.5451L319.742 26.7436L319.734 26.7374L319.725 26.7314L319.144 27.5451ZM318.27 26.9185L317.748 27.7715L317.758 27.778L317.769 27.7844L318.27 26.9185ZM317.347 26.3539L317.869 25.5009L317.865 25.4984L317.347 26.3539ZM315.515 25.2453L316.033 24.3898L315.995 24.3666L315.955 24.347L315.515 25.2453ZM313.601 24.3088L313.141 25.1965L313.151 25.2019L313.162 25.2071L313.601 24.3088ZM311.659 23.4481L311.291 24.3778L311.301 24.3817L311.311 24.3854L311.659 23.4481ZM295.464 20.9486L295.526 21.9467L295.535 21.9461L295.464 20.9486ZM280.536 25.2659L280.055 24.389L280.05 24.3918L280.536 25.2659ZM263.322 46.3706L262.368 46.0705L262.365 46.0787L262.363 46.087L263.322 46.3706ZM261.71 58.1521L260.71 58.1678L260.711 58.1774L261.71 58.1521ZM263.445 68.3429L262.494 68.6499L262.494 68.6499L263.445 68.3429ZM267.047 76.2202L266.192 76.7391L266.214 76.7761L266.24 76.8111L267.047 76.2202ZM267.047 76.3097L266.24 75.7188L266.207 75.7635L266.18 75.8116L267.047 76.3097ZM259.231 89.9159L258.356 89.4331L260.099 90.4139L259.231 89.9159ZM266.902 76.2202H267.902V72.3799L266.029 75.7324L266.902 76.2202ZM266.902 76.3097L266.05 76.8323L267.902 79.8542V76.3097H266.902ZM263.253 68.4255L262.303 68.7373L262.303 68.7373L263.253 68.4255ZM261.469 58.1727L260.469 58.1919L260.47 58.2002L261.469 58.1727ZM263.06 46.3018L262.105 46.0044L262.103 46.0122L262.1 46.0201L263.06 46.3018ZM280.384 24.9561L279.9 24.0813L279.897 24.0829L280.384 24.9561ZM295.395 20.5217L295.464 21.5193L295.466 21.5191L295.395 20.5217ZM311.756 23.035L311.388 23.965L311.396 23.968L311.404 23.9709L311.756 23.035ZM313.711 23.9094L313.248 24.7959L313.262 24.8029L313.276 24.8096L313.711 23.9094ZM315.646 24.8459L316.164 23.9907L316.131 23.9707L316.097 23.9534L315.646 24.8459ZM317.498 25.9683L318.017 25.1136L318.017 25.113L317.498 25.9683ZM318.428 26.5329L317.909 27.3876L317.913 27.3904L318.428 26.5329ZM319.309 27.1733L319.907 26.3714L319.9 26.3667L319.894 26.3621L319.309 27.1733ZM321.065 28.4815L320.468 29.2834L320.476 29.2896L320.484 29.2957L321.065 28.4815ZM321.905 29.1701L321.221 29.8993L321.227 29.9052L321.233 29.9109L321.905 29.1701ZM322.718 29.9069L323.411 29.1859L323.4 29.1758L323.389 29.1661L322.718 29.9069ZM324.322 31.4218L323.574 32.0856L323.582 32.0938L324.322 31.4218ZM325.809 33.0606L326.562 32.402L326.556 32.3952L326.55 32.3885L325.809 33.0606ZM326.498 33.8731L325.657 34.4138L325.676 34.4431L325.696 34.471L326.498 33.8731ZM327.145 34.7407L327.947 34.1427V34.1427L327.145 34.7407ZM328.44 36.4759L329.276 35.9278L329.259 35.9023L329.241 35.8779L328.44 36.4759ZM329.569 38.3075L328.718 38.8332L328.724 38.8417L328.729 38.8502L329.569 38.3075ZM330.622 40.1666L329.725 40.6082L329.73 40.6187L329.736 40.629L330.622 40.1666ZM332.344 44.0501L333.284 43.7089L333.282 43.7037L332.344 44.0501ZM333.067 46.0332L334.027 45.7547L334.018 45.7217L334.006 45.6894L333.067 46.0332ZM333.604 48.0989L334.574 47.8546L334.572 47.8473L333.604 48.0989ZM334.038 64.3286L335.018 64.5283L335.019 64.5207L334.038 64.3286ZM327.841 78.4305L327.031 77.8438L327.028 77.8474L327.841 78.4305ZM305.042 93.0695L305.192 94.0582L305.213 94.055L305.234 94.0509L305.042 93.0695ZM301.957 93.5377L302.045 94.5339L302.076 94.5311L302.107 94.5264L301.957 93.5377ZM298.934 93.703L298.975 94.7022L298.983 94.7019L298.99 94.7015L298.934 93.703ZM293.15 93.4138L293.291 92.4237L293.286 92.423L293.15 93.4138ZM283.221 90.5769L282.809 91.488L282.813 91.4897L283.221 90.5769ZM275.833 85.929L276.567 85.2505L275.861 84.4863L275.126 85.2219L275.833 85.929ZM275.833 86.0599V87.0599H276.27L276.567 86.7384L275.833 86.0599ZM275.798 86.0599V85.0599H275.684L275.573 85.0855L275.798 86.0599ZM259.465 90.8606L275.991 86.8876L275.523 84.943L258.998 88.916L259.465 90.8606ZM274.813 85.5849L274.765 85.7226L276.653 86.3834L276.701 86.2456L274.813 85.5849ZM276.37 85.303C276.468 85.3889 276.546 85.4948 276.6 85.6136L274.777 86.4364C274.84 86.5766 274.932 86.7015 275.048 86.803L276.37 85.303ZM276.6 85.6136C276.653 85.7325 276.681 85.8612 276.681 85.991H274.681C274.681 86.1442 274.713 86.2961 274.777 86.4364L276.6 85.6136ZM276.681 85.991C276.681 86.1209 276.653 86.2495 276.6 86.3684L274.777 85.5456C274.714 85.6858 274.681 85.8377 274.681 85.991H276.681ZM276.6 86.3684C276.546 86.4872 276.468 86.5931 276.37 86.679L275.048 85.179C274.932 85.2805 274.84 85.4054 274.777 85.5456L276.6 86.3684ZM276.376 86.6744C276.207 86.8249 275.99 86.908 275.764 86.908V84.908C275.498 84.908 275.241 85.0061 275.042 85.1837L276.376 86.6744ZM275.764 86.908C275.538 86.908 275.321 86.8247 275.152 86.6744L276.486 85.1837C276.287 85.0062 276.03 84.908 275.764 84.908V86.908ZM275.211 86.7227C277.587 88.5444 280.169 90.082 282.903 91.3039L283.719 89.478C281.127 88.3197 278.68 86.8622 276.427 85.1354L275.211 86.7227ZM282.906 91.3052C286.159 92.7468 289.602 93.7164 293.129 94.1847L293.392 92.2021C290.053 91.7589 286.795 90.8412 283.716 89.4767L282.906 91.3052ZM293.127 94.1845C295.087 94.4484 297.065 94.5433 299.041 94.4682L298.965 92.4696C297.104 92.5404 295.24 92.451 293.394 92.2024L293.127 94.1845ZM299.066 94.4669C299.997 94.4083 301.071 94.3764 302.094 94.286L301.917 92.2937C300.915 92.3824 299.979 92.4055 298.94 92.4709L299.066 94.4669ZM302.157 94.2783L305.214 93.8101L304.911 91.8332L301.854 92.3014L302.157 94.2783ZM305.258 93.8023C314.596 91.9391 322.878 86.6022 328.432 78.8693L326.808 77.7025C321.549 85.0239 313.707 90.0769 304.867 91.841L305.258 93.8023ZM328.432 78.8706C331.52 74.5855 333.657 69.6903 334.701 64.5124L332.741 64.1172C331.753 69.0159 329.731 73.6471 326.809 77.7012L328.432 78.8706ZM334.703 64.5057C335.767 59.0348 335.612 53.3967 334.25 47.9923L332.311 48.481C333.601 53.6005 333.747 58.9414 332.739 64.1239L334.703 64.5057ZM334.248 47.985C334.083 47.3486 333.913 46.5901 333.704 45.9254L331.796 46.5267C331.986 47.1289 332.12 47.7476 332.313 48.4883L334.248 47.985ZM333.694 45.8949L333.005 43.9325L331.118 44.5947L331.807 46.5571L333.694 45.8949ZM332.999 43.9152C332.495 42.5597 331.908 41.2365 331.241 39.9533L329.467 40.8757C330.096 42.0858 330.649 43.3336 331.124 44.6119L332.999 43.9152ZM331.252 39.9738C330.923 39.3036 330.553 38.6541 330.144 38.0291L328.47 39.1229C328.834 39.6797 329.163 40.2582 329.456 40.8552L331.252 39.9738ZM330.16 38.053C329.804 37.4731 329.425 36.8265 329.033 36.2169L327.351 37.2994C327.73 37.8879 328.067 38.467 328.455 39.099L330.16 38.053ZM328.993 36.1597L327.712 34.4452L326.11 35.6421L327.391 37.3566L328.993 36.1597ZM327.713 34.4467L327.073 33.586L325.468 34.7798L326.109 35.6406L327.713 34.4467ZM327.075 33.5891C326.937 33.4013 326.789 33.2353 326.669 33.1026C326.539 32.9588 326.447 32.8586 326.365 32.755L324.799 33.9995C324.93 34.1645 325.076 34.3225 325.184 34.4421C325.302 34.5728 325.391 34.6753 325.466 34.7768L327.075 33.5891ZM326.323 32.7056L324.849 31.0805L323.368 32.424L324.841 34.049L326.323 32.7056ZM324.852 31.0838C324.57 30.7701 324.271 30.493 323.993 30.2446C323.704 29.9854 323.456 29.772 323.211 29.5369L321.825 30.9793C322.104 31.2468 322.406 31.5085 322.659 31.7347C322.924 31.9718 323.158 32.1904 323.365 32.4207L324.852 31.0838ZM323.189 29.517L322.384 28.7871L321.041 30.2693L321.847 30.9992L323.189 29.517ZM322.4 28.802C322.105 28.5231 321.792 28.2644 321.463 28.0277L320.295 29.6516C320.552 29.8359 320.796 30.0373 321.025 30.2544L322.4 28.802ZM321.477 28.0381L319.742 26.7436L318.546 28.3466L320.281 29.6411L321.477 28.0381ZM319.725 26.7314C319.553 26.6081 319.127 26.2591 318.77 26.0526L317.769 27.7844C318.032 27.936 318.157 28.069 318.563 28.3588L319.725 26.7314ZM318.791 26.0655L317.869 25.5009L316.825 27.2068L317.748 27.7715L318.791 26.0655ZM317.865 25.4984L316.033 24.3898L314.997 26.1008L316.829 27.2094L317.865 25.4984ZM315.955 24.347L314.04 23.4105L313.162 25.2071L315.076 26.1435L315.955 24.347ZM314.061 23.4211C313.396 23.076 312.71 22.772 312.008 22.5108L311.311 24.3854C311.937 24.6182 312.548 24.889 313.141 25.1965L314.061 23.4211ZM312.028 22.5184C306.746 20.4253 301.06 19.5479 295.393 19.9511L295.535 21.9461C300.903 21.5641 306.288 22.3952 311.291 24.3778L312.028 22.5184ZM295.402 19.9505C290.022 20.2824 284.782 21.798 280.055 24.389L281.017 26.1428C285.485 23.6933 290.439 22.2605 295.526 21.9467L295.402 19.9505ZM280.05 24.3918C271.598 29.0883 265.27 36.8473 262.368 46.0705L264.275 46.6708C267.024 37.936 273.017 30.5878 281.022 26.14L280.05 24.3918ZM262.363 46.087C261.203 50.007 260.646 54.0804 260.71 58.1678L262.71 58.1363C262.649 54.2515 263.178 50.38 264.28 46.6543L262.363 46.087ZM260.711 58.1774C260.801 61.7356 261.401 65.2624 262.494 68.6499L264.397 68.036C263.363 64.8307 262.795 61.4936 262.71 58.1268L260.711 58.1774ZM262.494 68.6499C263.407 71.4812 264.648 74.196 266.192 76.7391L267.902 75.7013C266.439 73.2914 265.263 70.7188 264.397 68.0359L262.494 68.6499ZM266.24 76.8111C266.124 76.6522 266.061 76.4608 266.061 76.2649H268.061C268.061 76.0369 267.989 75.8141 267.853 75.6293L266.24 76.8111ZM266.061 76.2649C266.061 76.0691 266.124 75.8777 266.24 75.7188L267.853 76.9006C267.989 76.7157 268.061 76.493 268.061 76.2649H266.061ZM266.18 75.8116L258.364 89.4178L260.099 90.4139L267.914 76.8078L266.18 75.8116ZM260.107 90.3986C260.402 89.8642 262.854 85.5159 267.775 76.7079L266.029 75.7324C261.117 84.5243 258.653 88.8933 258.356 89.4331L260.107 90.3986ZM265.902 76.2202V76.3097H267.902V76.2202H265.902ZM267.755 75.787C266.277 73.376 265.085 70.8008 264.203 68.1138L262.303 68.7373C263.233 71.5721 264.49 74.2888 266.05 76.8323L267.755 75.787ZM264.203 68.1138C263.146 64.8923 262.562 61.5345 262.469 58.1453L260.47 58.2002C260.568 61.7827 261.185 65.332 262.303 68.7373L264.203 68.1138ZM262.469 58.1536C262.394 54.2404 262.917 50.3388 264.019 46.5835L262.1 46.0201C260.941 49.9707 260.391 54.0753 260.469 58.1919L262.469 58.1536ZM264.015 46.5991C266.764 37.7713 272.799 30.3363 280.872 25.8292L279.897 24.0829C271.376 28.8398 265.007 36.6871 262.105 46.0044L264.015 46.5991ZM280.869 25.8309C285.36 23.3435 290.342 21.8717 295.464 21.5193L295.327 19.524C289.913 19.8965 284.647 21.4521 279.9 24.0813L280.869 25.8309ZM295.466 21.5191C300.89 21.1315 306.331 21.9673 311.388 23.965L312.123 22.1049C306.787 19.9971 301.046 19.1152 295.324 19.5242L295.466 21.5191ZM311.404 23.9709C312.035 24.2083 312.651 24.4838 313.248 24.7959L314.174 23.023C313.505 22.6735 312.815 22.3649 312.108 22.099L311.404 23.9709ZM313.276 24.8096C313.938 25.1299 314.564 25.4194 315.195 25.7384L316.097 23.9534C315.448 23.6252 314.765 23.3087 314.147 23.0093L313.276 24.8096ZM315.128 25.7011L316.98 26.8235L318.017 25.113L316.164 23.9907L315.128 25.7011ZM316.979 26.823L317.909 27.3876L318.947 25.6782L318.017 25.1136L316.979 26.823ZM317.913 27.3904C318.185 27.5531 318.317 27.6904 318.724 27.9844L319.894 26.3621C319.71 26.2292 319.291 25.8845 318.942 25.6754L317.913 27.3904ZM318.712 27.9752L320.468 29.2834L321.663 27.6797L319.907 26.3714L318.712 27.9752ZM320.484 29.2957C320.743 29.4802 320.989 29.6818 321.221 29.8993L322.589 28.4409C322.293 28.1623 321.977 27.9039 321.646 27.6674L320.484 29.2957ZM321.233 29.9109L322.046 30.6477L323.389 29.1661L322.577 28.4293L321.233 29.9109ZM322.025 30.6279C322.306 30.8979 322.613 31.164 322.867 31.3924C323.133 31.6323 323.368 31.8534 323.574 32.0855L325.07 30.758C324.787 30.4393 324.485 30.1577 324.204 29.9053C323.911 29.6414 323.66 29.4255 323.411 29.1859L322.025 30.6279ZM323.582 32.0938L325.069 33.7326L326.55 32.3885L325.063 30.7497L323.582 32.0938ZM325.057 33.7191C325.384 34.0933 325.523 34.2064 325.657 34.4138L327.339 33.3323C327.101 32.9613 326.716 32.5787 326.562 32.402L325.057 33.7191ZM325.696 34.471L326.344 35.3386L327.947 34.1427L327.299 33.2751L325.696 34.471ZM326.344 35.3386L327.638 37.0738L329.241 35.8779L327.947 34.1427L326.344 35.3386ZM327.603 37.0239C327.988 37.611 328.317 38.1839 328.718 38.8332L330.42 37.7818C330.063 37.2054 329.676 36.5388 329.276 35.9278L327.603 37.0239ZM328.729 38.8502C329.095 39.4164 329.428 40.0034 329.725 40.6082L331.52 39.725C331.188 39.0506 330.817 38.3961 330.409 37.7647L328.729 38.8502ZM329.736 40.629C330.372 41.8483 330.929 43.1067 331.406 44.3966L333.282 43.7037C332.776 42.3344 332.184 40.9985 331.509 39.7042L329.736 40.629ZM331.404 44.3914C331.648 45.0624 331.889 45.7243 332.128 46.3771L334.006 45.6894C333.768 45.0384 333.527 44.3783 333.284 43.7089L331.404 44.3914ZM332.106 46.3118C332.302 46.9847 332.447 47.6236 332.636 48.3506L334.572 47.8473C334.403 47.1972 334.232 46.4589 334.027 45.7547L332.106 46.3118ZM332.634 48.3433C333.937 53.5123 334.081 58.9052 333.056 64.1364L335.019 64.5207C336.1 59.0004 335.948 53.3094 334.574 47.8546L332.634 48.3433ZM333.058 64.1288C332.049 69.0777 329.994 73.7538 327.031 77.8438L328.65 79.0172C331.781 74.6965 333.952 69.7565 335.018 64.5283L333.058 64.1288ZM327.028 77.8474C321.719 85.2453 313.786 90.3385 304.85 92.0881L305.234 94.0509C314.67 92.2034 323.046 86.8252 328.653 79.0136L327.028 77.8474ZM304.892 92.0808L301.807 92.5491L302.107 94.5264L305.192 94.0582L304.892 92.0808ZM301.87 92.5416C300.868 92.6295 299.921 92.6467 298.879 92.7045L298.99 94.7015C299.931 94.6492 301.008 94.625 302.045 94.5339L301.87 92.5416ZM298.894 92.7038C297.021 92.7802 295.146 92.6864 293.291 92.4237L293.01 94.4039C294.985 94.6836 296.982 94.7834 298.975 94.7022L298.894 92.7038ZM293.286 92.423C289.952 91.9669 286.701 91.0379 283.63 89.664L282.813 91.4897C286.058 92.9412 289.493 93.9226 293.015 94.4046L293.286 92.423ZM283.633 89.6658C281.032 88.4892 278.578 87.0113 276.321 85.2625L275.096 86.8434C277.477 88.6881 280.065 90.247 282.809 91.488L283.633 89.6658ZM276.416 86.7601L276.54 86.6361L275.126 85.2219L275.002 85.3459L276.416 86.7601ZM275.098 86.6076C274.944 86.4407 274.858 86.2218 274.858 85.9944H276.858C276.858 85.7186 276.754 85.4529 276.567 85.2505L275.098 86.6076ZM274.858 85.9944C274.858 85.767 274.944 85.5481 275.098 85.3813L276.567 86.7384C276.754 86.536 276.858 86.2704 276.858 85.9944H274.858ZM275.833 85.0599H275.798V87.0599H275.833V85.0599ZM275.573 85.0855L259.006 88.914L259.457 90.8626L276.024 87.0342L275.573 85.0855Z" fill="#00A0D0" mask="url(#path-33-inside-1_1_152)"/>
<path d="M298.03 62.0184L298.029 62.0184C297.36 62.0599 296.7 61.8432 296.186 61.4129C295.672 60.9829 295.343 60.3724 295.265 59.7069C295.265 59.7065 295.265 59.7061 295.265 59.7056L293.124 40.3319L293.124 40.3319L293.124 40.3265C293.09 40.0494 293.116 39.7682 293.2 39.5019C293.284 39.2356 293.424 38.9903 293.61 38.7826C293.797 38.5748 294.025 38.4093 294.281 38.2971C294.537 38.1851 294.813 38.1289 295.092 38.1325C295.092 38.1325 295.093 38.1325 295.093 38.1325L299.795 38.2013C299.795 38.2013 299.795 38.2013 299.795 38.2013C300.06 38.2053 300.321 38.2629 300.563 38.3707L300.766 37.9141L300.563 38.3707C300.805 38.4786 301.022 38.6344 301.202 38.8287C301.382 39.0231 301.521 39.2519 301.61 39.5014C301.699 39.7507 301.736 40.0155 301.72 40.2797C301.72 40.2798 301.72 40.28 301.72 40.2802L300.501 59.559C300.501 59.5591 300.501 59.5592 300.501 59.5593C300.46 60.1999 300.186 60.8033 299.731 61.2562C299.276 61.7091 298.671 61.9802 298.03 62.0184Z" fill="white" stroke="#00A0D0"/>
<path d="M295.846 75.2036C295.189 74.6916 294.699 73.9964 294.438 73.2059C294.089 72.1464 294.175 70.9919 294.675 69.9952C295.176 68.9984 296.051 68.2407 297.109 67.8878C297.9 67.6256 298.75 67.6037 299.553 67.8249C300.355 68.0461 301.075 68.5004 301.619 69.1304C302.164 69.7604 302.51 70.5378 302.612 71.3642C302.715 72.1907 302.57 73.029 302.196 73.7732C301.823 74.5174 301.236 75.134 300.512 75.545C299.788 75.956 298.958 76.1429 298.127 76.0821C297.297 76.0214 296.503 75.7156 295.846 75.2036Z" fill="white" stroke="#00A0D0"/>
</svg>
